<svg width="52" height="52" xmlns="http://www.w3.org/2000/svg"><g fill="none"><path d="M45.413 17.68L32.191 8.188c.095-.171.203-.336.286-.515l-.41.214s-3.814-3.9-4.16-2.774l-1.415 1.54a4.248 4.248 0 01-1.791.54c-1.474.087-2.687-2.08-2.687-2.08L17.84 8.407a8.286 8.286 0 007.119 4.073 8.19 8.19 0 003.723-.902L41.6 22.88l3.38-1.213.433-3.987zm1.82 5.893l-2.876-1.3-2.757.607-4.877 14.632a8.293 8.293 0 00-7.603 8.248c0 .149.036.287.044.433h5.07c0-1.82 3.033-4.68 4.94-3.813 1.906.867 2.123.26 2.123.26l1.09-3.536-.006-.004 4.852-15.527z" fill="#ECECEC"/><path d="M47.84 16.64a4.109 4.109 0 00-1.903.481l-16.854-12.6c.011-.12.037-.236.037-.361a4.16 4.16 0 10-8.32 0c.007.173.024.345.052.516L6.136 17.16a4.117 4.117 0 00-1.976-.52 4.157 4.157 0 00-.765 8.243l7.063 20.18.01.014a4.144 4.144 0 008.071 1.83l14.834.823a5.195 5.195 0 108.829-4.553l6.403-18.294a4.157 4.157 0 00-.765-8.243zM24.96 2.08a2.08 2.08 0 110 4.16 2.08 2.08 0 010-4.16zm-3.277 4.615a4.128 4.128 0 006.66-.13l16.013 11.971a4.135 4.135 0 00-.676 2.264c0 .14.028.272.042.41l-11.235 4.139a5.162 5.162 0 00-8.955.26l-15.23-4.635c.003-.06.018-.115.018-.174a4.125 4.125 0 00-.65-2.215l14.013-11.89zM31.2 28.08a3.12 3.12 0 11-6.24 0 3.12 3.12 0 016.24 0zM2.08 20.8a2.08 2.08 0 114.16 0 2.08 2.08 0 01-4.16 0zm12.48 27.04a2.08 2.08 0 110-4.16 2.08 2.08 0 010 4.16zm23.92 2.08a3.12 3.12 0 110-6.24 3.12 3.12 0 010 6.24zm1.936-7.94a5.174 5.174 0 00-7 3.67l-14.809-.822a4.132 4.132 0 00-6.787-2.175L5.538 24.708a4.15 4.15 0 002.16-1.744l15.23 4.636c-.015.16-.048.316-.048.48a5.2 5.2 0 1010.4 0 5.148 5.148 0 00-.078-.778l11.222-4.135a4.159 4.159 0 002.039 1.541l-6.047 17.273zm7.424-19.1a2.08 2.08 0 110-4.16 2.08 2.08 0 010 4.16z" fill="#D8A732"/></g></svg>