<svg width="52" height="52" xmlns="http://www.w3.org/2000/svg"><g fill="none"><path d="M26 9.043c-.19 0-.373.023-.562.029a16.934 16.934 0 01-7.92 31.595A16.95 16.95 0 1026 9.043z" fill="#ECECEC"/><path d="M26 0C11.64 0 0 11.64 0 26s11.64 26 26 26 26-11.64 26-26A26 26 0 0026 0zm0 49.74C12.89 49.74 2.26 39.11 2.26 26 2.26 12.89 12.89 2.26 26 2.26c13.11 0 23.74 10.63 23.74 23.74C49.723 39.105 39.104 49.724 26 49.74z" fill="#D8A732"/><path d="M26.96 6.831a3.297 3.297 0 00-.395-.048c-.056 0-.11.017-.165.02-.134-.003-.264-.02-.4-.02C15.387 6.783 6.783 15.387 6.783 26S15.387 45.217 26 45.217c.136 0 .266-.017.4-.02.056.003.11.02.165.02.133-.008.265-.024.396-.048 10.223-.5 18.256-8.934 18.256-19.169 0-10.235-8.033-18.67-18.256-19.169zM42.9 24.87h-8.444a30.599 30.599 0 00-3.687-15.132 16.973 16.973 0 0112.13 15.132zM26.785 42.917c-.115.005-.23.014-.345.017-2.162-.226-5.268-6.426-5.505-15.803h11.259c-.234 9.238-3.252 15.389-5.409 15.786zm-5.85-18.047c.236-9.378 3.342-15.578 5.504-15.804.116.003.23.012.345.018 2.158.397 5.175 6.547 5.408 15.786H20.936zM22.6 9.387a29.732 29.732 0 00-3.925 15.483H9.1A16.978 16.978 0 0122.6 9.387zM9.1 27.13h9.575A29.732 29.732 0 0022.6 42.613 16.978 16.978 0 019.1 27.13zm21.668 15.132a30.599 30.599 0 003.688-15.132H42.9a16.973 16.973 0 01-12.132 15.132z" fill="#D2A542"/></g></svg>