<svg width="123" height="38" xmlns="http://www.w3.org/2000/svg"><g fill="none" fill-rule="evenodd"><path d="M16.224 15.257l1.731-5.816s.462-.992 1.108 0l1.731 5.816h5.816s.716.208.208.97l-4.64 3.392 1.732 5.332s.277 1.015-.831.761l-4.57-3.323-4.5 3.254s-.877.508-.97-.554l1.8-5.47-4.708-3.392s-.461-.716.346-.97h5.747zm21 0l1.731-5.816s.462-.992 1.108 0l1.731 5.816h5.816s.716.208.208.97l-4.64 3.392 1.732 5.332s.277 1.015-.831.761l-4.57-3.323-4.5 3.254s-.877.508-.97-.554l1.8-5.47-4.708-3.392s-.461-.716.346-.97h5.747zm21 0l1.731-5.816s.462-.992 1.108 0l1.731 5.816h5.816s.716.208.208.97l-4.64 3.392 1.732 5.332s.277 1.015-.831.761l-4.57-3.323-4.5 3.254s-.877.508-.97-.554l1.8-5.47-4.708-3.392s-.461-.716.346-.97h5.747zm21 0l1.731-5.816s.462-.992 1.108 0l1.731 5.816h5.816s.716.208.208.97l-4.64 3.392 1.732 5.332s.277 1.015-.831.761l-4.57-3.323-4.5 3.254s-.877.508-.97-.554l1.8-5.47-4.708-3.392s-.461-.716.346-.97h5.747z" fill="#D2A542"/><path d="M100.224 15.257l1.731-5.816s.462-.992 1.108 0l1.731 5.816h5.816s.716.208.208.97l-4.64 3.392 1.732 5.332s.277 1.015-.831.761l-4.57-3.323-4.5 3.254s-.877.508-.97-.554l1.8-5.47-4.708-3.392s-.461-.716.346-.97h5.747z" fill="#D9D9D9"/><path d="M8 .5A7.5 7.5 0 00.5 8v22A7.5 7.5 0 008 37.5h107a7.5 7.5 0 007.5-7.5V8A7.5 7.5 0 00115 .5H8z" stroke="#DEDEDE"/></g></svg>