<svg width="80" height="80" xmlns="http://www.w3.org/2000/svg"><g fill="none" fill-rule="evenodd"><path fill="#FFF" d="M0 0h80v80H0z"/><path d="M66.944 24.757h-2.083v-2.084a2.315 2.315 0 10-4.63 0v2.084h-2.083a2.315 2.315 0 100 4.63h2.084v2.083a2.315 2.315 0 104.63 0v-2.083h2.083a2.315 2.315 0 000-4.63zM46.505 38.846a14.873 14.873 0 10-18.148 0A27.436 27.436 0 0010 64.746a2.315 2.315 0 002.315 2.314h50.232a2.315 2.315 0 002.314-2.315 27.439 27.439 0 00-18.356-25.9zm-19.32-11.774c0-5.657 4.586-10.243 10.242-10.243 5.657 0 10.243 4.585 10.244 10.241 0 5.657-4.584 10.244-10.24 10.245-5.656-.005-10.24-4.588-10.246-10.243zM14.745 62.43c1.188-11.636 10.988-20.487 22.685-20.487s21.497 8.85 22.685 20.487h-45.37z" fill="#5C5C5C" fill-rule="nonzero"/><path d="M10 10h59.259v59.259H10z"/></g></svg>