<svg width="80" height="80" xmlns="http://www.w3.org/2000/svg"><g fill="none" fill-rule="evenodd"><path fill="#FFF" d="M0 0h80v80H0z"/><g fill="#5C5C5C" fill-rule="nonzero"><path d="M59.607 30.494c5.388-.007 9.754-4.374 9.76-9.762a9.732 9.732 0 10-19.46.063 9.709 9.709 0 009.7 9.699zm0-16.02a6.293 6.293 0 11-6.322 6.259 6.329 6.329 0 016.322-6.26z"/><path d="M57.422 24.67l.104-.027a.552.552 0 01.14.034c.14.069.287.115.44.138.073.024.147.042.223.053.053.008.106.02.157.035.087.03.176.05.267.06v1.043h1.968v-1.17c.11-.042.215-.093.315-.155.12-.052.235-.12.338-.202l.168-.125c.118-.11.222-.232.31-.366a1.29 1.29 0 00.22-.318c.026-.049.052-.099.087-.147l.197-.552c.06-.205.085-.418.074-.631a1.475 1.475 0 00-.074-.528l-.027-.105a1.085 1.085 0 00-.147-.359l-.031-.068a1.226 1.226 0 00-.244-.386 1.076 1.076 0 01-.094-.114 1.633 1.633 0 00-.166-.199 1.347 1.347 0 00-.425-.313 1.35 1.35 0 00-.324-.186l-.115-.05a.81.81 0 01-.135-.073 1.41 1.41 0 00-.277-.137 3.06 3.06 0 01-.366-.133l-.027-.04h-.085c-.087-.084-.185-.116-.207-.102a.6.6 0 00-.238-.135l-.117-.116v-.104l-.05-.052.007-.245a.638.638 0 00.024-.08.762.762 0 00.05-.122l.12-.116.182-.013.074-.039h.31l.24.069h.085c.058.018.117.032.177.04a.836.836 0 00.22.05l.752.292.235-1.642v-.494l-.484-.12-.073-.018a.424.424 0 00-.147-.037.754.754 0 00-.263-.064 1.219 1.219 0 00-.22-.048v-1.032H58.6v1.121a1.943 1.943 0 00-.314.154 1.352 1.352 0 00-.463.336 2.049 2.049 0 00-.304.356c-.14.158-.24.347-.293.551l-.156.468a2.049 2.049 0 00-.073.631c-.008.18.017.358.073.528l.029.102c.026.128.075.249.146.357.03.06.074.134.118.208.033.056.067.11.089.155l.067.094a.943.943 0 01.094.115c.053.072.11.14.173.203.118.13.26.235.419.309.1.077.21.14.327.187l.11.048c.082.032.162.071.237.118.048.027.092.05.13.073l.074.028c.114.036.227.077.336.126l.112.035a.293.293 0 00.209.106c.061.066.134.12.213.162l.074.073a.823.823 0 00.03.074c.011.025.014.057.02.082a.506.506 0 01.018.073l.005.206-.155.155a.38.38 0 01-.112.086l-.06.033a.69.69 0 00-.123.052l-.047.013a.512.512 0 01-.073.017h-.668a.589.589 0 01-.073-.017.63.63 0 00-.186-.034.758.758 0 01-.147-.063 1.048 1.048 0 00-.232-.081.503.503 0 01-.079-.023l-.076-.038h-.028a.544.544 0 00-.142-.047.58.58 0 00-.109-.041l-.714-.357-.233 1.842v.416l.249.084.33.072zm11.947 40.48h-4.091V33.565H53.925V65.15h-1.537V42.325H40.982V65.15h-1.537V40.76H28.092v24.39h-1.537l-.028-18.923H15.093l.053 18.923H11v3.962h52.976l5.405.024-.012-3.986zm-11.488 0V37.435h3.443V65.15H57.88zm-12.944 0V46.31h3.443v18.84h-3.443zm-12.89 0V44.98h3.445v20.17h-3.444zm-12.943 0V50.193h3.443V65.15h-3.443z"/><path d="M30.335 33.404l11.48 4.756 9.452-7.878-2.338-2.804-7.756 6.466-11.26-4.668-14.847 10.085 2.049 3.02z"/></g><path d="M11.157 10.732h58.38v58.38h-58.38z"/></g></svg>