<svg width="80" height="80" xmlns="http://www.w3.org/2000/svg"><g fill="none" fill-rule="evenodd"><path fill="#FFF" d="M0 0h80v80H0z"/><g fill="#5C5C5C" fill-rule="nonzero"><path d="M62.5 55H31.273L18.148 25H10v-3.75h10.602l13.125 30H62.5zm-18.75 9.375a5.625 5.625 0 11-11.25 0 5.625 5.625 0 0111.25 0zm18.75 0a5.625 5.625 0 11-11.25 0 5.625 5.625 0 0111.25 0zM56.875 10c-7.249 0-13.125 5.876-13.125 13.125S49.626 36.25 56.875 36.25 70 30.374 70 23.125A13.125 13.125 0 0056.875 10zm7.5 15H58.75v5.625H55V25h-5.625v-3.75H55v-5.625h3.75v5.625h5.625V25z"/><path d="M56.875 40a16.846 16.846 0 01-15.838-11.25H28.75l7.5 18.75H62.5l4.329-10.818A16.735 16.735 0 0156.875 40z"/></g><path d="M10 10h60v60H10z"/></g></svg>