<svg width="80" height="80" xmlns="http://www.w3.org/2000/svg"><g fill="none" fill-rule="evenodd"><path fill="#FFF" d="M0 0h80v80H0z"/><path d="M68.36 23.765a16.612 16.612 0 00-28.76-4.74 16.609 16.609 0 00-13.072-6.364 16.721 16.721 0 00-13.596 7.066 15.872 15.872 0 00-2.815 7.361 20.08 20.08 0 00.63 7.468c1.37 5.18 4.404 9.905 6.709 12.956 5.008 6.635 11.896 12.656 21.055 18.41l1.095.688 1.094-.688c11.266-7.078 19.129-14.549 24.04-22.843 2.825-4.77 4.297-9.02 4.499-12.992a16.493 16.493 0 00-.88-6.322zM39.603 61.742c-8.183-5.269-14.363-10.74-18.867-16.709-2.081-2.757-4.811-6.995-6.014-11.53a16.013 16.013 0 01-.519-5.936 11.809 11.809 0 012.092-5.474 12.5 12.5 0 0121.458 1.685l1.852 3.768 1.842-3.768a12.519 12.519 0 0123.028 1.35 12.4 12.4 0 01.65 4.753c-.167 3.29-1.453 6.923-3.929 11.105-4.41 7.447-11.481 14.247-21.593 20.756z" fill="#5C5C5C" fill-rule="nonzero"/><path d="M10 10h59.259v59.259H10z"/></g></svg>