<svg xmlns="http://www.w3.org/2000/svg" width="150" height="150"><path fill="#414042" d="M150 75c0 41.422-33.578 75-75 75S0 116.422 0 75 33.578 0 75 0s75 33.578 75 75"/><path fill="#D1A32C" d="M93.062 56.936v45.261c0 7.626-6.221 13.847-13.846 13.847H47.807a13.811 13.811 0 01-13.85-13.847V56.936h13.146v45.261c0 .401.302.7.703.7h31.409a.686.686 0 00.702-.7V56.936h13.145z"/><path fill="#D1A32C" d="M56.939 93.064V47.803c0-7.626 6.221-13.849 13.847-13.849h31.409a13.811 13.811 0 0113.848 13.849v45.261h-13.146V47.803a.687.687 0 00-.703-.703H70.786a.688.688 0 00-.703.703v45.261H56.939z"/></svg>