<svg xmlns="http://www.w3.org/2000/svg" width="148.925" height="48.695"><path fill="#4B4A4B" d="M38.733 17.215c0-14.265-.369-12.666-1.476-13.895C36.221 2.169 21.393.263 19.503.025L19.45 0l-.073.009A2.792 2.792 0 0019.305 0l-.055.025C17.361.264 2.533 2.169 1.497 3.32.39 4.55.021 2.951.021 17.215S-.41 31.91 2.603 34.923s14.511 13.772 16.478 13.772c.107 0 .196-.031.296-.043.1.013.189.043.296.043 1.967 0 13.465-10.759 16.478-13.772s2.582-3.443 2.582-17.708zm-8.29 1.643L17.871 30.894a.996.996 0 01-1.369.013l-8.177-7.535a.997.997 0 01-.057-1.413l3.389-3.677a.998.998 0 011.413-.058l4.032 3.715 8.501-8.138a1 1 0 011.414.031l3.458 3.611a1 1 0 01-.032 1.415zm23.582-1.934c-.65-.248-1.232-.52-1.748-.816a5.173 5.173 0 01-1.318-1.06 4.373 4.373 0 01-.845-1.476c-.201-.573-.301-1.26-.301-2.063 0-.974.167-1.833.501-2.579a5.117 5.117 0 011.418-1.876c.611-.506 1.346-.888 2.206-1.146.859-.258 1.824-.387 2.894-.387.974 0 1.886.086 2.736.258.85.172 1.743.42 2.679.745a10.182 10.182 0 01-.917 3.266c-.287-.114-.578-.229-.874-.344a6.865 6.865 0 00-.945-.287 10.53 10.53 0 00-1.132-.186c-.42-.047-.898-.072-1.433-.072-.325 0-.654.029-.988.086a2.764 2.764 0 00-.902.315 1.784 1.784 0 00-.659.673c-.172.296-.258.683-.258 1.16 0 .382.067.702.201.96.133.258.315.478.544.659.229.182.487.334.773.458.287.125.573.244.859.358l1.719.659c.726.287 1.384.583 1.977.888a5.35 5.35 0 011.504 1.131c.411.449.73.994.959 1.633.229.64.344 1.428.344 2.364 0 .974-.177 1.862-.53 2.664a5.728 5.728 0 01-1.533 2.063c-.669.573-1.495 1.022-2.478 1.347-.984.324-2.116.487-3.395.487-.63 0-1.194-.019-1.69-.057-.497-.039-.97-.101-1.418-.187s-.893-.195-1.332-.329a17.275 17.275 0 01-1.375-.487c.057-.554.162-1.132.315-1.733a23.1 23.1 0 01.544-1.819c.802.325 1.557.569 2.263.731s1.461.243 2.263.243c1.204 0 2.149-.224 2.836-.673s1.032-1.132 1.032-2.049c0-.458-.082-.84-.244-1.146a2.52 2.52 0 00-.63-.773 3.8 3.8 0 00-.874-.53 24.314 24.314 0 00-1.002-.416l-1.746-.657zM66.028 5.866h11.689a9.236 9.236 0 010 3.553h-7.506v4.469h5.959a9.446 9.446 0 010 3.581h-5.959v5.443h7.707c.115.573.172 1.156.172 1.748a9.16 9.16 0 01-.172 1.805h-11.89V5.866zM94.85 22.568a11.543 11.543 0 01.974 3.352c-.994.363-1.887.602-2.679.716-.793.115-1.647.172-2.564.172-1.624 0-3.046-.263-4.269-.788-1.223-.525-2.249-1.261-3.08-2.206-.831-.946-1.457-2.067-1.876-3.367-.42-1.298-.63-2.712-.63-4.24s.219-2.946.659-4.254c.439-1.308 1.074-2.439 1.905-3.395a8.592 8.592 0 013.066-2.234c1.212-.535 2.593-.802 4.14-.802.917 0 1.762.057 2.536.172.773.114 1.609.354 2.507.716a6.344 6.344 0 01-.344 1.676 32.116 32.116 0 01-.63 1.647 12.858 12.858 0 00-1.776-.487 10.255 10.255 0 00-1.833-.143c-1.833 0-3.242.597-4.226 1.791s-1.475 2.965-1.475 5.314c0 4.661 1.977 6.991 5.93 6.991.707 0 1.328-.047 1.862-.143s1.134-.258 1.803-.488zm3.983-16.702c.362-.058.716-.095 1.06-.115a18.197 18.197 0 012.063 0c.344.02.697.057 1.06.115v10.687c0 1.165.043 2.163.129 2.994s.258 1.519.516 2.063c.258.544.621.945 1.089 1.203.468.258 1.074.387 1.819.387.745 0 1.346-.129 1.805-.387s.816-.659 1.075-1.203c.258-.544.43-1.232.516-2.063s.129-1.829.129-2.994V5.866a11.84 11.84 0 011.088-.115 18.197 18.197 0 012.049 0c.353.02.711.057 1.074.115V17.44c0 1.395-.115 2.669-.344 3.825-.229 1.156-.64 2.144-1.232 2.965-.592.822-1.385 1.457-2.378 1.905-.994.449-2.254.673-3.782.673s-2.789-.225-3.782-.673c-.994-.448-1.786-1.083-2.378-1.905-.592-.821-1.003-1.809-1.232-2.965-.229-1.156-.344-2.431-.344-3.825V5.866zm19.538 0c.84-.095 1.628-.176 2.364-.244.735-.067 1.551-.1 2.449-.1 1.05 0 2.086.096 3.109.286a8.41 8.41 0 012.765 1.017 5.718 5.718 0 011.991 1.977c.506.831.759 1.886.759 3.166 0 .764-.096 1.437-.286 2.02a6.155 6.155 0 01-1.69 2.665 6.868 6.868 0 01-.974.759l-.487.315 5.014 8.709c-.382.038-.784.076-1.204.115-.42.038-.85.057-1.289.057a13.36 13.36 0 01-2.149-.172l-5.386-9.569.688-.344c.267-.133.592-.305.974-.516.382-.21.749-.473 1.103-.788a4.32 4.32 0 00.903-1.146c.248-.448.373-.979.373-1.59 0-1.204-.344-2.086-1.032-2.65-.688-.563-1.576-.845-2.665-.845-.42 0-.802.029-1.146.086v17.391c-.344.038-.688.072-1.031.1-.344.029-.678.043-1.002.043-.325 0-.669-.01-1.032-.028a12.06 12.06 0 01-1.117-.115V5.866zm17.304 0h11.689a9.236 9.236 0 010 3.553h-7.506v4.469h5.959a9.446 9.446 0 010 3.581h-5.959v5.443h7.707c.115.573.172 1.156.172 1.748a9.16 9.16 0 01-.172 1.805h-11.89V5.866zM49.59 41.805c.295.107.603.201.924.281.321.08.714.121 1.178.121.731 0 1.278-.149 1.64-.449.361-.299.542-.703.542-1.212 0-.25-.038-.464-.114-.643-.076-.178-.189-.333-.341-.462s-.341-.248-.569-.354a18.575 18.575 0 00-.797-.348l-.763-.308a5.207 5.207 0 01-.709-.355 2.195 2.195 0 01-.556-.475 2.163 2.163 0 01-.368-.649 2.58 2.58 0 01-.134-.877c0-.813.277-1.448.831-1.908.553-.459 1.33-.689 2.33-.689a6.692 6.692 0 012.236.375 4.22 4.22 0 01-.294 1.111 6.752 6.752 0 00-.837-.241 4.95 4.95 0 00-1.078-.107c-.563 0-.996.114-1.299.341-.304.228-.456.569-.456 1.024 0 .188.038.354.114.502.076.147.176.277.301.388.125.112.272.212.441.301.169.089.348.17.536.241l.75.294c.357.143.674.292.951.449.276.156.513.339.709.549.196.21.346.458.449.743.103.286.154.621.154 1.004 0 .919-.317 1.645-.951 2.175-.634.531-1.522.797-2.665.797-.277 0-.527-.009-.75-.027a5.574 5.574 0 01-1.179-.214 15.536 15.536 0 01-.549-.174c.018-.196.058-.397.121-.603.064-.204.131-.405.202-.601zm6.936 0c.295.107.603.201.924.281.321.08.714.121 1.178.121.731 0 1.278-.149 1.64-.449.361-.299.542-.703.542-1.212 0-.25-.038-.464-.114-.643-.076-.178-.189-.333-.341-.462s-.341-.248-.569-.354a18.575 18.575 0 00-.797-.348l-.763-.308a5.207 5.207 0 01-.709-.355 2.195 2.195 0 01-.556-.475 2.163 2.163 0 01-.368-.649 2.58 2.58 0 01-.134-.877c0-.813.277-1.448.831-1.908.553-.459 1.33-.689 2.33-.689a6.692 6.692 0 012.236.375 4.22 4.22 0 01-.294 1.111 6.752 6.752 0 00-.837-.241 4.95 4.95 0 00-1.078-.107c-.563 0-.996.114-1.299.341-.304.228-.456.569-.456 1.024 0 .188.038.354.114.502.076.147.176.277.301.388.125.112.272.212.441.301.169.089.348.17.536.241l.75.294c.357.143.674.292.951.449.276.156.513.339.709.549.196.21.346.458.449.743.103.286.154.621.154 1.004 0 .919-.317 1.645-.951 2.175-.634.531-1.522.797-2.665.797-.277 0-.527-.009-.75-.027a5.574 5.574 0 01-1.179-.214 15.536 15.536 0 01-.549-.174c.018-.196.058-.397.121-.603.064-.204.131-.405.202-.601zm7.538-8.168a3.16 3.16 0 01.314-.04 4.425 4.425 0 011.038.04v8.422h3.775c.018.098.029.201.034.308.004.107.007.206.007.294 0 .214-.014.415-.041.603h-5.128v-9.627zm9.801 0h5.289c.027.179.041.375.041.589 0 .098-.002.201-.007.308a1.84 1.84 0 01-.034.295h-3.923v2.758h3.133c.018.089.031.186.04.288a3.449 3.449 0 01-.04.903h-3.133v3.294h4.03c.027.178.04.375.04.589 0 .098-.002.201-.007.308a1.954 1.954 0 01-.033.294h-5.396v-9.626zm7.177 0a3.957 3.957 0 01.629-.054 3.912 3.912 0 01.629.054l4.191 7.23v-7.23a4.498 4.498 0 01.682-.054 3.692 3.692 0 01.616.054v9.627a3.932 3.932 0 01-.628.054 3.936 3.936 0 01-.629-.054l-4.204-7.19v7.19a4.094 4.094 0 01-.984.04 2.566 2.566 0 01-.301-.04v-9.627zm15.25 8.221c.196.384.322.754.375 1.111a5.31 5.31 0 01-1.151.348 7.158 7.158 0 01-1.272.107c-.696 0-1.323-.114-1.881-.341a3.82 3.82 0 01-1.413-.978 4.334 4.334 0 01-.883-1.546c-.206-.607-.308-1.29-.308-2.049 0-.768.103-1.461.308-2.082.205-.62.5-1.149.883-1.586a3.878 3.878 0 011.406-1.011c.553-.236 1.173-.355 1.861-.355.509 0 .946.036 1.312.107.366.072.692.156.978.254a2.473 2.473 0 01-.114.569 8.703 8.703 0 01-.208.556 11.102 11.102 0 00-.388-.121 4.416 4.416 0 00-.877-.154 7.556 7.556 0 00-.596-.02c-.973 0-1.73.33-2.27.991-.541.661-.81 1.611-.81 2.852 0 .634.076 1.183.228 1.647.151.464.366.848.643 1.151.276.304.609.531.998.683s.823.228 1.305.228c.375 0 .714-.031 1.018-.094.303-.061.588-.15.856-.267zm2.156-8.234c.196-.018.375-.036.536-.054a16.939 16.939 0 01.964-.081c.169-.009.357-.013.563-.013.455 0 .906.045 1.352.134.446.089.844.246 1.192.469s.631.524.85.904.328.859.328 1.439c0 .348-.058.665-.174.951a3.053 3.053 0 01-1.05 1.345 4.815 4.815 0 01-.663.409l-.161.08 2.799 4.057a7.417 7.417 0 01-1.54 0l-3.08-4.458v-.054l.107-.027c.241-.063.495-.147.763-.254.268-.107.515-.248.743-.422a2.31 2.31 0 00.569-.629c.151-.246.228-.542.228-.891 0-.643-.19-1.12-.569-1.433-.38-.313-.891-.469-1.533-.469-.152 0-.292.005-.422.014s-.274.022-.435.04v8.583l-.328.027a4.585 4.585 0 01-.341.013c-.107 0-.223-.002-.348-.006a2.774 2.774 0 01-.348-.034v-9.64zm9.814 6.119l-3.053-6.105a5.998 5.998 0 011.159-.04c.138.009.261.022.368.04l2.249 4.78 2.223-4.78a4.576 4.576 0 01.71-.054 5.22 5.22 0 01.737.054l-3.013 6.105v3.521a4.576 4.576 0 01-1.379 0v-3.521zm5.811-6.119a17.26 17.26 0 011.052-.101c.201-.013.401-.024.603-.034.201-.009.395-.013.582-.013.491 0 .958.049 1.399.147s.83.268 1.165.509c.334.241.6.56.796.957.196.397.294.895.294 1.493 0 .625-.105 1.145-.314 1.56a2.74 2.74 0 01-.83.998c-.344.25-.734.426-1.171.529a5.827 5.827 0 01-1.339.154c-.169 0-.319-.002-.448-.007s-.27-.016-.422-.034v3.481a5.47 5.47 0 01-.683.04c-.107 0-.221-.002-.342-.006a2.753 2.753 0 01-.341-.034v-9.639zm1.366 4.967a5.99 5.99 0 00.844.054c.276 0 .551-.029.823-.087.272-.058.516-.163.729-.314.214-.152.386-.359.516-.623s.194-.604.194-1.024c0-.366-.056-.674-.167-.924a1.546 1.546 0 00-.462-.603 1.79 1.79 0 00-.709-.321 4.041 4.041 0 00-.897-.094c-.33 0-.62.014-.87.04v3.896zm7.873-3.762h-2.503a2.593 2.593 0 01-.041-.295 3.66 3.66 0 010-.609c.009-.102.022-.199.041-.288h6.373a3.214 3.214 0 01.04.89 2.596 2.596 0 01-.04.301h-2.504v8.435c-.205.027-.428.04-.669.04a5.58 5.58 0 01-.696-.04v-8.434zm5.382-1.192a4.498 4.498 0 011.031-.04c.116.009.228.022.334.04v9.627a4.418 4.418 0 01-1.365 0v-9.627zm7.431 9.788c-.696 0-1.299-.123-1.808-.368s-.931-.589-1.265-1.031c-.335-.442-.585-.966-.75-1.573s-.248-1.272-.248-1.995.083-1.388.248-1.995.415-1.131.75-1.573c.334-.442.756-.788 1.265-1.038s1.111-.375 1.808-.375 1.299.125 1.808.375.93.596 1.265 1.038c.334.442.583.966.743 1.573s.241 1.272.241 1.995-.08 1.388-.241 1.995-.409 1.131-.743 1.573c-.335.441-.756.785-1.265 1.031s-1.112.368-1.808.368zm0-1.178c.446 0 .832-.087 1.158-.261.326-.174.596-.426.81-.756.214-.33.375-.728.482-1.192a7.06 7.06 0 00.161-1.58c0-.58-.054-1.105-.161-1.573a3.625 3.625 0 00-.482-1.192 2.2 2.2 0 00-.81-.75c-.326-.174-.712-.261-1.158-.261-.447 0-.833.087-1.158.261a2.2 2.2 0 00-.81.75 3.625 3.625 0 00-.482 1.192 7.078 7.078 0 00-.161 1.573c0 .589.053 1.116.161 1.58.107.464.268.862.482 1.192s.484.583.81.756c.325.174.711.261 1.158.261zm6.052-8.61a3.957 3.957 0 01.629-.054 3.912 3.912 0 01.629.054l4.191 7.23v-7.23a4.498 4.498 0 01.682-.054 3.692 3.692 0 01.616.054v9.627a3.932 3.932 0 01-.628.054 3.936 3.936 0 01-.629-.054l-4.204-7.19v7.19a4.094 4.094 0 01-.984.04 2.566 2.566 0 01-.301-.04v-9.627z"/></svg>