<svg xmlns="http://www.w3.org/2000/svg" width="145.379" height="48.596"><path fill="#4B4A4B" d="M32.332 18.676l.057-6.97C29.314-1.083 17.264.024 17.264.024S4.796-1.083 1.722 11.706l.057 6.97L0 20.068V35.07s2.46 13.526 16.97 13.526h.171c14.51 0 16.97-13.526 16.97-13.526V20.068l-1.779-1.392zM7.255 12.075s1.454-7.082 9.214-7.24l.918-.015c7.993 0 9.469 7.255 9.469 7.255v6.763H7.255v-6.763zm20.866 16.764L15.549 40.875a.996.996 0 01-1.369.013l-8.177-7.535a.997.997 0 01-.057-1.413l3.389-3.677a.998.998 0 011.413-.058l4.032 3.715 8.501-8.138a1 1 0 011.414.031l3.458 3.611a1 1 0 01-.032 1.415zm23.546-9.77c-.65-.248-1.232-.52-1.748-.816a5.173 5.173 0 01-1.318-1.06 4.373 4.373 0 01-.845-1.476c-.201-.573-.301-1.26-.301-2.063 0-.974.167-1.833.501-2.579a5.117 5.117 0 011.418-1.876c.611-.506 1.346-.888 2.206-1.146.859-.258 1.824-.387 2.894-.387.974 0 1.886.086 2.736.258.85.172 1.743.42 2.679.745a10.182 10.182 0 01-.917 3.266c-.287-.114-.578-.229-.874-.344a6.865 6.865 0 00-.945-.287 10.53 10.53 0 00-1.132-.186c-.42-.047-.898-.072-1.433-.072-.325 0-.654.029-.988.086a2.764 2.764 0 00-.902.315 1.784 1.784 0 00-.659.673c-.172.296-.258.683-.258 1.16 0 .382.067.702.201.96.133.258.315.478.544.659.229.182.487.334.773.458.287.125.573.244.859.358l1.719.659c.726.287 1.384.583 1.977.888a5.35 5.35 0 011.504 1.131c.411.449.73.994.959 1.633.229.64.344 1.428.344 2.364 0 .974-.177 1.862-.53 2.664a5.728 5.728 0 01-1.533 2.063c-.669.573-1.495 1.022-2.478 1.347-.984.324-2.116.487-3.395.487-.63 0-1.194-.019-1.69-.057-.497-.039-.97-.101-1.418-.187s-.893-.195-1.332-.329a17.275 17.275 0 01-1.375-.487c.057-.554.162-1.132.315-1.733a23.1 23.1 0 01.544-1.819c.802.325 1.557.569 2.263.731s1.461.243 2.263.243c1.204 0 2.149-.224 2.836-.673s1.032-1.132 1.032-2.049c0-.458-.082-.84-.244-1.146a2.52 2.52 0 00-.63-.773 3.8 3.8 0 00-.874-.53 24.314 24.314 0 00-1.002-.416l-1.746-.657zM63.671 8.011H75.36a9.236 9.236 0 010 3.553h-7.506v4.469h5.959a9.446 9.446 0 010 3.581h-5.959v5.443h7.707c.115.573.172 1.156.172 1.748a9.16 9.16 0 01-.172 1.805h-11.89V8.011zm28.822 16.702a11.543 11.543 0 01.974 3.352c-.994.363-1.887.602-2.679.716-.793.115-1.647.172-2.564.172-1.624 0-3.046-.263-4.269-.788-1.223-.525-2.249-1.261-3.08-2.206-.831-.946-1.457-2.067-1.876-3.367-.42-1.298-.63-2.712-.63-4.24s.219-2.946.659-4.254c.439-1.308 1.074-2.439 1.905-3.395a8.592 8.592 0 013.066-2.234c1.212-.535 2.593-.802 4.14-.802.917 0 1.762.057 2.536.172.773.114 1.609.354 2.507.716a6.344 6.344 0 01-.344 1.676 32.116 32.116 0 01-.63 1.647 12.858 12.858 0 00-1.776-.487 10.255 10.255 0 00-1.833-.143c-1.833 0-3.242.597-4.226 1.791s-1.475 2.965-1.475 5.314c0 4.661 1.977 6.991 5.93 6.991.707 0 1.328-.047 1.862-.143s1.134-.258 1.803-.488zm3.982-16.702c.362-.058.716-.095 1.06-.115a18.197 18.197 0 012.063 0c.344.02.697.057 1.06.115v10.687c0 1.165.043 2.163.129 2.994s.258 1.519.516 2.063c.258.544.621.945 1.089 1.203.468.258 1.074.387 1.819.387.745 0 1.346-.129 1.805-.387s.816-.659 1.075-1.203c.258-.544.43-1.232.516-2.063s.129-1.829.129-2.994V8.011a11.84 11.84 0 011.088-.115 18.197 18.197 0 012.049 0c.353.02.711.057 1.074.115v11.574c0 1.395-.115 2.669-.344 3.825-.229 1.156-.64 2.144-1.232 2.965-.592.822-1.385 1.457-2.378 1.905-.994.449-2.254.673-3.782.673s-2.789-.225-3.782-.673c-.994-.448-1.786-1.083-2.378-1.905-.592-.821-1.003-1.809-1.232-2.965-.229-1.156-.344-2.431-.344-3.825V8.011zm19.539 0c.84-.095 1.628-.176 2.364-.244.735-.067 1.551-.1 2.449-.1 1.05 0 2.086.096 3.109.286a8.41 8.41 0 012.765 1.017 5.718 5.718 0 011.991 1.977c.506.831.759 1.886.759 3.166 0 .764-.096 1.437-.286 2.02a6.155 6.155 0 01-1.69 2.665 6.868 6.868 0 01-.974.759l-.487.315 5.014 8.709c-.382.038-.784.076-1.204.115-.42.038-.85.057-1.289.057a13.36 13.36 0 01-2.149-.172L121 19.012l.688-.344c.267-.133.592-.305.974-.516.382-.21.749-.473 1.103-.788a4.32 4.32 0 00.903-1.146c.248-.448.373-.979.373-1.59 0-1.204-.344-2.086-1.032-2.65-.688-.563-1.576-.845-2.665-.845-.42 0-.802.029-1.146.086V28.61c-.344.038-.688.072-1.031.1-.344.029-.678.043-1.002.043-.325 0-.669-.01-1.032-.028a12.06 12.06 0 01-1.117-.115V8.011zm17.304 0h11.689a9.236 9.236 0 010 3.553h-7.506v4.469h5.959a9.446 9.446 0 010 3.581h-5.959v5.443h7.707c.115.573.172 1.156.172 1.748a9.16 9.16 0 01-.172 1.805h-11.89V8.011zM46.912 34.639a18.07 18.07 0 011.543-.125c.187-.009.368-.013.543-.013.458 0 .893.046 1.305.137.412.092.774.25 1.087.475.312.225.56.523.743.894s.275.835.275 1.393c0 .583-.098 1.068-.293 1.456a2.545 2.545 0 01-.775.93c-.32.233-.685.398-1.093.494a5.439 5.439 0 01-1.249.144c-.159 0-.298-.002-.418-.006a4.597 4.597 0 01-.394-.031v3.248c-.2.025-.412.038-.637.038-.1 0-.206-.002-.318-.006a2.594 2.594 0 01-.319-.031v-8.997zm1.274 4.634a5.315 5.315 0 00.787.05 3.7 3.7 0 00.769-.081c.254-.054.481-.152.681-.294.2-.141.36-.335.481-.581s.181-.564.181-.956c0-.341-.052-.629-.156-.862a1.44 1.44 0 00-.431-.563 1.677 1.677 0 00-.662-.3 3.813 3.813 0 00-.837-.087 7.69 7.69 0 00-.812.038v3.636zm11.83 2.286h-3.41l-.612 2.074a4.493 4.493 0 01-.65.05c-.117 0-.231-.004-.344-.012s-.214-.021-.306-.038l2.923-8.981c.108-.017.225-.029.35-.038a5.407 5.407 0 01.749 0c.125.008.246.021.362.038l2.911 8.981c-.1.017-.212.029-.337.038a5.028 5.028 0 01-.693 0 3.262 3.262 0 01-.318-.038l-.625-2.074zm-3.074-1.112h2.736l-1.374-4.584-1.362 4.584zm9.831-.099l-2.848-5.696a5.218 5.218 0 011.425 0l2.099 4.459 2.074-4.459a4.428 4.428 0 011.349 0l-2.811 5.696v3.285a4.428 4.428 0 01-.65.05c-.109 0-.219-.004-.331-.012s-.214-.021-.306-.038v-3.285zm7.92-5.697c.1-.017.214-.029.343-.038a5.972 5.972 0 01.75 0c.138.008.252.021.344.038l2.323 5.621 2.336-5.621c.083-.017.188-.029.313-.038a5.028 5.028 0 01.724 0c.133.008.246.021.337.038l.425 8.981a3.76 3.76 0 01-1.236 0l-.288-6.983-2.198 5.122a3.447 3.447 0 01-.512.038c-.158 0-.317-.013-.475-.038l-2.124-5.159-.287 7.021a3.158 3.158 0 01-.575.05c-.108 0-.212-.004-.312-.012a2.823 2.823 0 01-.288-.038l.4-8.982zm12.192 0h4.935c.025.167.037.35.037.55 0 .091-.002.187-.006.287-.004.1-.015.192-.031.275h-3.66v2.573h2.923a2.99 2.99 0 01.05.55c0 .091-.004.187-.012.287s-.021.191-.038.275H88.16v3.073h3.76c.025.167.038.35.038.55 0 .092-.002.188-.006.287-.004.1-.015.192-.031.275h-5.034v-8.982zm8.944 0a3.07 3.07 0 01.587-.05c.091 0 .189.004.293.012.104.008.202.021.293.038l3.91 6.746v-6.746a3.697 3.697 0 01.637-.05c.092 0 .188.004.288.012.1.008.195.021.287.038v8.981a3.07 3.07 0 01-.586.05c-.092 0-.189-.004-.294-.012a2.745 2.745 0 01-.293-.038l-3.922-6.708v6.708a3.539 3.539 0 01-.599.05c-.108 0-.214-.004-.318-.012a2.28 2.28 0 01-.281-.038v-8.981zm12.292 1.112h-2.336a3.205 3.205 0 01-.038-.843 2.6 2.6 0 01.038-.269h5.946a2.578 2.578 0 01.05.537c0 .092-.004.189-.012.293a2.28 2.28 0 01-.038.281h-2.336v7.87a5.226 5.226 0 01-1.274 0v-7.869z"/></svg>