<svg width="60" height="60" xmlns="http://www.w3.org/2000/svg"><g fill="none" fill-rule="evenodd"><path fill="#EEE" d="M0 0h60v60H0z"/><path d="M22.525 13.999A8.48 8.48 0 0014 22.381v15.286a8.48 8.48 0 008.525 8.382h15.546a8.479 8.479 0 008.529-8.382V22.381a8.479 8.479 0 00-8.529-8.382H22.525z" fill="#C7C7C7" fill-rule="nonzero" style="mix-blend-mode:luminosity"/><path d="M35.343 25.064v12.429a3.843 3.843 0 01-3.867 3.8h-8.773a3.826 3.826 0 01-3.868-3.8V25.064h3.672v12.429a.189.189 0 00.2.193h8.768a.191.191 0 00.2-.193V25.064h3.668z" fill="#FFF" fill-rule="nonzero" style="mix-blend-mode:luminosity"/><path d="M25.254 34.985V22.553a3.843 3.843 0 013.867-3.8h8.773a3.826 3.826 0 013.868 3.8v12.432H38.09V22.553a.189.189 0 00-.2-.193h-8.769a.19.19 0 00-.2.193v12.432h-3.667z" fill="#FFF" fill-rule="nonzero" style="mix-blend-mode:luminosity"/></g></svg>