<svg width="33" height="33" xmlns="http://www.w3.org/2000/svg"><g fill="none"><path d="M24.071-.001H8.525A8.48 8.48 0 000 8.381v15.286a8.48 8.48 0 008.525 8.382h15.546a8.479 8.479 0 008.529-8.382V8.381a8.479 8.479 0 00-8.529-8.382" fill="#404042"/><path d="M21.343 11.064v12.429a3.843 3.843 0 01-3.867 3.8H8.703a3.826 3.826 0 01-3.868-3.8V11.064h3.672v12.429a.189.189 0 00.2.193h8.768a.191.191 0 00.2-.193V11.064h3.668z" fill="#D0A32C"/><path d="M11.254 20.985V8.553a3.843 3.843 0 013.867-3.8h8.773a3.826 3.826 0 013.868 3.8v12.432H24.09V8.553a.189.189 0 00-.2-.193h-8.769a.19.19 0 00-.2.193v12.432h-3.667z" fill="#D0A32C"/></g></svg>