<svg xmlns="http://www.w3.org/2000/svg" width="269.684" height="89"><g data-name="Group 16"><g data-name="Group 2" fill="#313133"><path data-name="Path 60" d="M10.888 31.887a5.444 5.444 0 11-5.41-5.41 5.377 5.377 0 015.41 5.41zm-.89 41.978H.479V42.296h9.519z"/><path data-name="Path 61" d="M28.762 46.336c4.178-3.767 8.013-4.657 11.094-4.657a12.662 12.662 0 018.424 2.876 11.036 11.036 0 012.876 3.836c1.78-2.124 5.821-6.712 12.463-6.712a11.894 11.894 0 019.794 4.452c2.328 3.081 2.6 5.615 2.6 8.7v19.037h-10V56.813c0-2.739 0-8.08-5.889-8.08-3.493 0-6.1 2.465-7.807 4.931v20.2h-9.93v-17.6a9.239 9.239 0 00-.821-4.725 6 6 0 00-5.2-2.877c-1.37 0-4.315.411-7.6 4.041v21.16h-9.861V42.296h9.861z"/><path data-name="Path 62" d="M115.187 70.307a24.615 24.615 0 01-14.381 4.177c-13.97 0-18.01-9.588-18.01-16.367 0-10.136 7.875-16.436 16.709-16.436 6.574 0 16.435 3.9 16.23 18.011H93.068c.411 5.752 4.314 8.628 10.477 8.628 5.684 0 8.56-2.122 11.642-4.382zm-8.218-15.82c-.274-2.807-2.122-6.779-6.847-6.779-4.863 0-6.643 4.04-6.849 6.779z"/><path data-name="Path 63" d="M133.062 46.815c2.67-3.081 5.683-5.136 10.272-5.136a10.988 10.988 0 0110.34 6.163c1.165 2.329 1.233 4.589 1.233 7.4v18.626h-10v-17.8a12.12 12.12 0 00-.48-4.52 4.532 4.532 0 00-4.451-2.945c-3.972 0-6.506 4.245-6.916 4.93v20.339h-9.93V42.296h9.93z"/><path data-name="Path 64" d="M184.972 51.061c-3.424-1.849-6.78-3.082-9.793-3.082-.891 0-4.383.137-4.383 2.192 0 1.233.685 1.712 3.9 3.082 6.231 2.465 11.847 4.793 11.847 11.162 0 6.437-4.794 10.067-12.874 10.067a27.784 27.784 0 01-11.3-2.329v-6.985c5 2.6 8.218 2.945 10.067 2.945 3.287 0 4.793-1.1 4.793-2.4 0-1.78-1.232-2.26-6.026-4.245a41.635 41.635 0 01-5.273-2.466 8.664 8.664 0 01-4.178-7.533c0-5.341 4.52-9.793 12.875-9.793a20.728 20.728 0 0110.341 2.329z"/><path data-name="Rectangle 6" d="M192.641 42.296h9.519v31.57h-9.519z"/><path data-name="Path 65" d="M232.772 49.144h-11.368v6.917c0 4.93 0 6.025.274 7.67a4.172 4.172 0 004.451 3.423 14.15 14.15 0 006.643-1.848v7.19a23.563 23.563 0 01-9.246 1.986c-3.971 0-7.943-1.507-10.272-4.726-1.506-2.123-1.917-4.45-1.917-9.176V49.144h-4.52v-1.849l13.217-14.929h1.37v9.93h11.368z"/><path data-name="Path 66" d="M248.523 89h-10.546l9.245-20.271-12.326-26.433h10.615l6.642 15.613 7.122-15.613h10.409z"/></g><g data-name="Group 3"><path data-name="Path 67" d="M203.05 31.887a5.444 5.444 0 11-5.41-5.41 5.377 5.377 0 015.41 5.41z" fill="#313133"/><path data-name="Path 68" d="M190.845 22.507c-3.413-1.852-6.881-3.573-10.379-5.218-3.554-1.62-7.131-3.182-10.768-4.589a192.081 192.081 0 00-22.219-7.188 172.036 172.036 0 00-22.906-4.328 158.525 158.525 0 00-46.32 1.071 170.463 170.463 0 00-22.474 5.339 189.559 189.559 0 00-21.55 8.1c-3.507 1.549-6.945 3.245-10.351 4.993-3.385 1.79-6.73 3.649-10 5.63 3.36-1.825 6.785-3.522 10.239-5.145 3.475-1.581 6.973-3.106 10.53-4.48a187.841 187.841 0 0121.719-7.014 167.668 167.668 0 0122.349-4.21 154.278 154.278 0 0145.087 1.071 166.151 166.151 0 0121.917 5.221 185.161 185.161 0 0121.051 7.924c3.427 1.515 6.786 3.176 10.112 4.884a194.687 194.687 0 019.27 5.217 11.584 11.584 0 013.246-6.011 13.139 13.139 0 011.447-1.267z" fill="#cc911a"/></g></g></svg>