<svg width="17" height="11" xmlns="http://www.w3.org/2000/svg"><g opacity=".6"><path d="M16.892 5.164C16.74 4.954 13.122 0 8.5 0S.26 4.953.108 5.164a.577.577 0 000 .672C.26 6.046 3.878 11 8.5 11s8.24-4.953 8.392-5.164a.576.576 0 000-.672zM8.5 9.862c-3.404 0-6.353-3.288-7.226-4.362.872-1.076 3.814-4.362 7.226-4.362 3.404 0 6.352 3.287 7.226 4.362-.872 1.076-3.814 4.362-7.226 4.362z"/><path d="M8.5 2C6.57 2 5 3.57 5 5.5S6.57 9 8.5 9 12 7.43 12 5.5 10.43 2 8.5 2zm0 5.833A2.336 2.336 0 016.167 5.5 2.336 2.336 0 018.5 3.167 2.336 2.336 0 0110.833 5.5 2.336 2.336 0 018.5 7.833z"/></g></svg>