<svg xmlns="http://www.w3.org/2000/svg" width="504" height="152.8"><path data-name="Path 1" d="M184.8 148.8l25.6-144h40l-24.8 144z" fill="#3c58bf"/><path data-name="Path 2" d="M184.8 148.8l32.8-144h32.8l-24.8 144z" fill="#293688"/><path data-name="Path 3" d="M370.4 6.4c-8-3.2-20.8-6.4-36.8-6.4-40 0-68.8 20-68.8 48.8 0 21.6 20 32.8 36 40s20.8 12 20.8 18.4c0 9.6-12.8 14.4-24 14.4-16 0-24.8-2.4-38.4-8l-5.6-2.4L248 144c9.6 4 27.2 8 45.6 8 42.4 0 70.4-20 70.4-50.4 0-16.8-10.4-29.6-34.4-40-14.4-7.2-23.2-11.2-23.2-18.4 0-6.4 7.2-12.8 23.2-12.8 13.6 0 23.2 2.4 30.4 5.6l4 1.6 6.4-31.2z" fill="#3c58bf"/><path data-name="Path 4" d="M370.4 6.4c-8-3.2-20.8-6.4-36.8-6.4-40 0-61.6 20-61.6 48.8 0 21.6 12.8 32.8 28.8 40s20.8 12 20.8 18.4c0 9.6-12.8 14.4-24 14.4-16 0-24.8-2.4-38.4-8l-5.6-2.4L248 144c9.6 4 27.2 8 45.6 8 42.4 0 70.4-20 70.4-50.4 0-16.8-10.4-29.6-34.4-40-14.4-7.2-23.2-11.2-23.2-18.4 0-6.4 7.2-12.8 23.2-12.8 13.6 0 23.2 2.4 30.4 5.6l4 1.6 6.4-31.2z" fill="#293688"/><path data-name="Path 5" d="M439.2 4.8c-9.6 0-16.8.8-20.8 10.4l-60 133.6h43.2l8-24h51.2l4.8 24H504l-33.6-144zm-18.4 96c2.4-7.2 16-42.4 16-42.4s3.2-8.8 5.6-14.4l2.4 13.6s8 36 9.6 44h-33.6z" fill="#3c58bf"/><path data-name="Path 6" d="M448.8 4.8c-9.6 0-16.8.8-20.8 10.4l-69.6 133.6h43.2l8-24h51.2l4.8 24H504l-33.6-144zm-28 96c3.2-8 16-42.4 16-42.4s3.2-8.8 5.6-14.4l2.4 13.6s8 36 9.6 44h-33.6z" fill="#293688"/><path data-name="Path 7" d="M111.2 105.6l-4-20.8c-7.2-24-30.4-50.4-56-63.2l36 128h43.2l64.8-144H152z" fill="#3c58bf"/><path data-name="Path 8" d="M111.2 105.6l-4-20.8c-7.2-24-30.4-50.4-56-63.2l36 128h43.2l64.8-144H160z" fill="#293688"/><path data-name="Path 9" d="M0 4.8l7.2 1.6c51.2 12 86.4 42.4 100 78.4l-14.4-68c-2.4-9.6-9.6-12-18.4-12z" fill="#ffbc00"/><path data-name="Path 10" d="M0 4.8C51.2 16.8 93.6 48 107.2 84L93.6 27.2A19.528 19.528 0 0074.4 12z" fill="#f7981d"/><path data-name="Path 11" d="M0 4.8C51.2 16.8 93.6 48 107.2 84l-9.6-31.2c-2.4-9.6-5.6-19.2-16.8-23.2z" fill="#ed7c00"/><g data-name="Group 1" fill="#051244"><path data-name="Path 12" d="M151.2 100.8L124 73.6 111.2 104 108 84c-7.2-24-30.4-50.4-56-63.2l36 128h43.2z"/><path data-name="Path 13" d="M225.6 148.8l-34.4-35.2-6.4 35.2z"/><path data-name="Path 14" d="M317.6 99.2c3.2 3.2 4.8 5.6 4 8.8 0 9.6-12.8 14.4-24 14.4-16 0-24.8-2.4-38.4-8l-5.6-2.4-5.6 32.8c9.6 4 27.2 8 45.6 8 25.6 0 46.4-7.2 58.4-20z"/><path data-name="Path 15" d="M364 148.8h37.6l8-24h51.2l4.8 24H504l-13.6-58.4-48-46.4 2.4 12.8s8 36 9.6 44h-33.6c3.2-8 16-42.4 16-42.4s3.2-8.8 5.6-14.4"/></g></svg>