<?xml version="1.0" encoding="UTF-8"?>
<svg width="52px" height="52px" viewBox="0 0 52 52" version="1.1" xmlns="http://www.w3.org/2000/svg" xmlns:xlink="http://www.w3.org/1999/xlink">
    <!-- Generator: Sketch 51.2 (57519) - http://www.bohemiancoding.com/sketch -->
    <title>internet-network.2</title>
    <desc>Created with Sketch.</desc>
    <defs></defs>
    <g id="Shopper" stroke="none" stroke-width="1" fill="none" fill-rule="evenodd">
        <g id="17_about" transform="translate(-946.000000, -2611.000000)" fill-rule="nonzero">
            <g id="internet-network.2" transform="translate(946.000000, 2611.000000)">
                <path d="M45.413264,17.68 L32.190704,8.188336 C32.286384,8.016528 32.393504,7.852 32.477328,7.672912 L32.066736,7.886528 C32.066736,7.886528 28.253264,3.986528 27.906736,5.113264 L26.492336,6.652464 C25.942724,6.96367559 25.3306362,7.14842464 24.700624,7.193264 C23.22736,7.28 22.013888,5.113264 22.013888,5.113264 L17.8412,8.407152 C19.3287824,10.9262481 22.0344722,12.4742426 24.96,12.48 C26.2549343,12.4779016 27.5309122,12.1687443 28.6832,11.577904 L41.6,22.88 L44.98,21.666528 L45.413264,17.68 Z" id="Shape" fill="#ECECEC"></path>
                <path d="M47.233264,23.573264 L44.356624,22.273264 L41.6,22.88 L36.722608,37.512176 C32.4312981,37.8704452 29.1282932,41.4537686 29.12,45.76 C29.12,45.908512 29.155984,46.046832 29.16368,46.193264 L34.233264,46.193264 C34.233264,44.373264 37.266736,41.513264 39.173264,42.38 C41.079792,43.246736 41.296736,42.64 41.296736,42.64 L42.386864,39.104 L42.38104,39.100256 L47.233264,23.573264 Z" id="Shape" fill="#ECECEC"></path>
                <path d="M47.84,16.64 C47.1759596,16.6442773 46.5228484,16.8094286 45.936592,17.121312 L29.083392,4.521504 C29.094,4.400656 29.12,4.2848 29.12,4.16 C29.12,1.86249544 27.2575046,1.4068158e-16 24.96,0 C22.6624954,-1.4068158e-16 20.8,1.86249544 20.8,4.16 C20.8065099,4.33286623 20.8238774,4.50515247 20.852,4.67584 L6.136,17.16 C5.53149186,16.823381 4.85189726,16.6445403 4.16,16.64 C2.01210523,16.638522 0.216813257,18.2737354 0.0182648964,20.4124342 C-0.180283464,22.551133 1.28330819,24.4888884 3.394768,24.882832 L10.457824,45.0632 L10.46864,45.077344 C10.1006352,47.2466438 11.4922274,49.3253176 13.638094,49.8116771 C15.7839606,50.2980367 17.9357881,49.0224771 18.53904,46.906496 L33.373184,47.730176 C33.7696577,49.9236138 35.5212988,51.6196188 37.7263872,51.9451116 C39.9314757,52.2706045 42.09843,51.153023 43.1117328,49.1676822 C44.1250356,47.1823414 43.7587908,44.7718344 42.201536,43.177056 L48.604608,24.882624 C50.7154172,24.4882038 52.1783624,22.5508996 51.9800206,20.4127361 C51.7816788,18.2745726 49.9873431,16.6394225 47.84,16.64 Z M24.96,2.08 C26.1087523,2.08 27.04,3.01124772 27.04,4.16 C27.04,5.30875228 26.1087523,6.24 24.96,6.24 C23.8112477,6.24 22.88,5.30875228 22.88,4.16 C22.8813753,3.01181789 23.8118179,2.08137534 24.96,2.08 Z M21.683376,6.695104 C22.4814005,7.74162123 23.730606,8.34489696 25.0464258,8.3192134 C26.3622456,8.29352985 27.5869578,7.6419656 28.343536,6.565104 L44.356416,18.536336 C43.9155856,19.2090457 43.6805164,19.995718 43.68,20.8 C43.68,20.940192 43.707872,21.072272 43.7216,21.209344 L32.487312,25.348544 C31.5213643,23.7698664 29.7842022,22.8291018 27.934231,22.8828113 C26.0842599,22.9365208 24.4046035,23.9764847 23.531872,25.608544 L8.302736,20.974304 C8.304816,20.914816 8.32,20.858864 8.32,20.8 C8.31844344,20.0148114 8.09279917,19.2463797 7.669584,18.585008 L21.683376,6.695104 Z M31.2,28.08 C31.2,29.8031284 29.8031284,31.2 28.08,31.2 C26.3568716,31.2 24.96,29.8031284 24.96,28.08 C24.96,26.3568716 26.3568716,24.96 28.08,24.96 C29.8023206,24.9619487 31.1980513,26.3576794 31.2,28.08 Z M2.08,20.8 C2.08,19.6512477 3.01124772,18.72 4.16,18.72 C5.30875228,18.72 6.24,19.6512477 6.24,20.8 C6.24,21.9487523 5.30875228,22.88 4.16,22.88 C3.01181789,22.8786247 2.08137534,21.9481821 2.08,20.8 Z M14.56,47.84 C13.4112477,47.84 12.48,46.9087523 12.48,45.76 C12.48,44.6112477 13.4112477,43.68 14.56,43.68 C15.7087523,43.68 16.64,44.6112477 16.64,45.76 C16.64,46.9087523 15.7087523,47.84 14.56,47.84 Z M38.48,49.92 C36.7568716,49.92 35.36,48.5231284 35.36,46.8 C35.36,45.0768716 36.7568716,43.68 38.48,43.68 C40.2031284,43.68 41.6,45.0768716 41.6,46.8 C41.6,48.5231284 40.2031284,49.92 38.48,49.92 Z M40.416272,41.980848 C39.0055477,41.407395 37.4138455,41.4844748 36.0651323,42.1915562 C34.7164191,42.8986377 33.7476489,44.1639208 33.416864,45.650384 L18.607264,44.827744 C18.2864637,43.3975383 17.2319799,42.2443289 15.8361174,41.7971498 C14.4402549,41.3499708 12.9119586,41.6757598 11.819808,42.653312 L5.538208,24.70832 C6.43676064,24.3920572 7.19916779,23.7763149 7.697456,22.964448 L22.928464,27.599728 C22.913488,27.760096 22.88,27.91568 22.88,28.080208 C22.88,30.9520887 25.2081193,33.280208 28.08,33.280208 C30.9518807,33.280208 33.28,30.9520887 33.28,28.080208 C33.2736205,27.8192883 33.2474063,27.5592317 33.201584,27.302288 L44.424432,23.166624 C44.9252328,23.881742 45.6383863,24.4211189 46.462832,24.70832 L40.416272,41.980848 Z M47.84,22.88 C46.6912477,22.88 45.76,21.9487523 45.76,20.8 C45.76,19.6512477 46.6912477,18.72 47.84,18.72 C48.9887523,18.72 49.92,19.6512477 49.92,20.8 C49.9186247,21.9481821 48.9881821,22.8786247 47.84,22.88 Z" id="Shape" fill="#D8A732"></path>
            </g>
        </g>
    </g>
</svg>