<?xml version="1.0" encoding="UTF-8"?>
<svg width="52px" height="52px" viewBox="0 0 52 52" version="1.1" xmlns="http://www.w3.org/2000/svg" xmlns:xlink="http://www.w3.org/1999/xlink">
    <!-- Generator: Sketch 51.2 (57519) - http://www.bohemiancoding.com/sketch -->
    <title>international-travel.1</title>
    <desc>Created with Sketch.</desc>
    <defs></defs>
    <g id="Shopper" stroke="none" stroke-width="1" fill="none" fill-rule="evenodd">
        <g id="17_about" transform="translate(-174.000000, -2610.000000)" fill-rule="nonzero">
            <g id="international-travel.1" transform="translate(174.000000, 2610.000000)">
                <path d="M26,9.04347826 C25.810313,9.04347826 25.6265043,9.06608696 25.4384,9.07173913 C31.9933791,12.8510088 35.2457437,20.5202214 33.405948,27.8595526 C31.5661523,35.1988838 25.0807186,40.427062 17.5181217,40.6673913 C23.6886615,44.2365917 31.4329115,43.5638876 36.8955954,38.9841675 C42.3582794,34.4044475 44.3720198,26.8963992 41.9343276,20.1977121 C39.4966354,13.499025 33.1284463,9.04121092 26,9.04347826 Z" id="Shape" fill="#ECECEC"></path>
                <path d="M26,1.50604167e-15 C11.6405965,-7.53020834e-16 1.75851975e-15,11.6405965 0,26 C-1.75851975e-15,40.3594035 11.6405965,52 26,52 C40.3594035,52 52,40.3594035 52,26 C52,19.1043713 49.2607222,12.4911695 44.3847763,7.61522369 C39.5088305,2.73927785 32.8956287,2.51006945e-16 26,1.50604167e-15 Z M26,49.7391304 C12.8892403,49.7391304 2.26086957,39.1107597 2.26086957,26 C2.26086957,12.8892403 12.8892403,2.26086957 26,2.26086957 C39.1107597,2.26086957 49.7391304,12.8892403 49.7391304,26 C49.7243037,39.1046134 39.1046134,49.7243037 26,49.7391304 Z" id="Shape" fill="#D8A732"></path>
                <path d="M26.9608696,6.83121739 C26.8300867,6.80704876 26.6979612,6.79081619 26.5652174,6.7826087 C26.5093739,6.7826087 26.4555652,6.80024348 26.4001739,6.80295652 C26.2658783,6.80024348 26.1356522,6.7826087 26,6.7826087 C15.3865279,6.7826087 6.7826087,15.3865279 6.7826087,26 C6.7826087,36.6134721 15.3865279,45.2173913 26,45.2173913 C26.1356522,45.2173913 26.2658783,45.1997565 26.4001739,45.1970435 C26.4555652,45.1997565 26.5093739,45.2173913 26.5652174,45.2173913 C26.6979612,45.2091838 26.8300867,45.1929512 26.9608696,45.1687826 C37.1841032,44.6696295 45.2165642,36.235412 45.2165642,26 C45.2165642,15.764588 37.1841032,7.33037047 26.9608696,6.83121739 Z M42.8990957,24.8695652 L34.4556522,24.8695652 C34.552434,19.5920754 33.2823593,14.379294 30.7688522,9.7377913 C37.579553,11.7475763 42.4191977,17.7847519 42.8990957,24.8695652 Z M26.7858783,42.9167304 C26.6708,42.9221565 26.5568522,42.9309739 26.4410957,42.9343652 C24.2788,42.7082783 21.1732696,36.5078435 20.9363304,27.130887 L32.1947826,27.130887 C31.9610087,36.3692522 28.9434261,42.5199478 26.7861043,42.9167304 L26.7858783,42.9167304 Z M20.9356522,24.8695652 C21.1721391,15.4921565 24.2781217,9.29217391 26.4404174,9.06608696 C26.5559478,9.06947826 26.6701217,9.07829565 26.7852,9.08372174 C28.9425217,9.48050435 31.9601043,15.6312 32.1932,24.8700174 L20.9356522,24.8695652 Z M22.5998783,9.38690435 C19.9037837,14.0931614 18.5464343,19.447268 18.6747826,24.8695652 L9.10090435,24.8695652 C9.6141329,17.262965 15.1349495,10.9312834 22.6007826,9.38690435 L22.5998783,9.38690435 Z M9.10090435,27.1304348 L18.6747826,27.1304348 C18.5464343,32.552732 19.9037837,37.9068386 22.5998783,42.6130957 C15.1344016,41.0683609 9.61402905,34.7367644 9.10090435,27.1304348 Z M30.7679478,42.2622087 C33.2817693,37.6207909 34.5521567,32.4080047 34.4556522,27.1304348 L42.9,27.1304348 C42.4198401,34.2157362 37.5793606,40.253053 30.7679478,42.2622087 Z" id="Shape" fill="#D2A542"></path>
            </g>
        </g>
    </g>
</svg>