<?xml version="1.0" encoding="UTF-8"?>
<svg width="123px" height="38px" viewBox="0 0 123 38" version="1.1" xmlns="http://www.w3.org/2000/svg" xmlns:xlink="http://www.w3.org/1999/xlink">
    <!-- Generator: Sketch 51.2 (57519) - http://www.bohemiancoding.com/sketch -->
    <title>Group 2</title>
    <desc>Created with Sketch.</desc>
    <defs></defs>
    <g id="Shopper" stroke="none" stroke-width="1" fill="none" fill-rule="evenodd">
        <g id="17_about" transform="translate(-560.000000, -2627.000000)">
            <g id="Group-2" transform="translate(560.000000, 2627.000000)">
                <path d="M16.2243267,15.2571901 L17.955306,9.44109968 C17.955306,9.44109968 18.4168543,8.4486254 19.0631327,9.44109968 L20.794112,15.2571901 L26.6102024,15.2571901 C26.6102024,15.2571901 27.32572,15.4649076 26.8179199,16.2265385 L22.1788955,19.6192579 L23.9098747,24.9506741 C23.9098747,24.9506741 24.1868314,25.9661358 23.0790047,25.712305 L18.5092194,22.3888248 L14.0086732,25.6430658 C14.0086732,25.6430658 13.1316899,26.1508659 13.0393248,25.0891525 L14.8395433,19.6192579 L10.1312796,16.2265385 C10.1312796,16.2265385 9.66973129,15.5110209 10.4774755,15.2571901 L16.2243267,15.2571901 Z" id="Fill-1" fill="#D2A542"></path>
                <path d="M37.2243267,15.2571901 L38.955306,9.44109968 C38.955306,9.44109968 39.4168543,8.4486254 40.0631327,9.44109968 L41.794112,15.2571901 L47.6102024,15.2571901 C47.6102024,15.2571901 48.32572,15.4649076 47.8179199,16.2265385 L43.1788955,19.6192579 L44.9098747,24.9506741 C44.9098747,24.9506741 45.1868314,25.9661358 44.0790047,25.712305 L39.5092194,22.3888248 L35.0086732,25.6430658 C35.0086732,25.6430658 34.1316899,26.1508659 34.0393248,25.0891525 L35.8395433,19.6192579 L31.1312796,16.2265385 C31.1312796,16.2265385 30.6697313,15.5110209 31.4774755,15.2571901 L37.2243267,15.2571901 Z" id="Fill-1-Copy" fill="#D2A542"></path>
                <path d="M58.2243267,15.2571901 L59.955306,9.44109968 C59.955306,9.44109968 60.4168543,8.4486254 61.0631327,9.44109968 L62.794112,15.2571901 L68.6102024,15.2571901 C68.6102024,15.2571901 69.32572,15.4649076 68.8179199,16.2265385 L64.1788955,19.6192579 L65.9098747,24.9506741 C65.9098747,24.9506741 66.1868314,25.9661358 65.0790047,25.712305 L60.5092194,22.3888248 L56.0086732,25.6430658 C56.0086732,25.6430658 55.1316899,26.1508659 55.0393248,25.0891525 L56.8395433,19.6192579 L52.1312796,16.2265385 C52.1312796,16.2265385 51.6697313,15.5110209 52.4774755,15.2571901 L58.2243267,15.2571901 Z" id="Fill-1-Copy-2" fill="#D2A542"></path>
                <path d="M79.2243267,15.2571901 L80.955306,9.44109968 C80.955306,9.44109968 81.4168543,8.4486254 82.0631327,9.44109968 L83.794112,15.2571901 L89.6102024,15.2571901 C89.6102024,15.2571901 90.32572,15.4649076 89.8179199,16.2265385 L85.1788955,19.6192579 L86.9098747,24.9506741 C86.9098747,24.9506741 87.1868314,25.9661358 86.0790047,25.712305 L81.5092194,22.3888248 L77.0086732,25.6430658 C77.0086732,25.6430658 76.1316899,26.1508659 76.0393248,25.0891525 L77.8395433,19.6192579 L73.1312796,16.2265385 C73.1312796,16.2265385 72.6697313,15.5110209 73.4774755,15.2571901 L79.2243267,15.2571901 Z" id="Fill-1-Copy-3" fill="#D2A542"></path>
                <path d="M100.224327,15.2571901 L101.955306,9.44109968 C101.955306,9.44109968 102.416854,8.4486254 103.063133,9.44109968 L104.794112,15.2571901 L110.610202,15.2571901 C110.610202,15.2571901 111.32572,15.4649076 110.81792,16.2265385 L106.178895,19.6192579 L107.909875,24.9506741 C107.909875,24.9506741 108.186831,25.9661358 107.079005,25.712305 L102.509219,22.3888248 L98.0086732,25.6430658 C98.0086732,25.6430658 97.1316899,26.1508659 97.0393248,25.0891525 L98.8395433,19.6192579 L94.1312796,16.2265385 C94.1312796,16.2265385 93.6697313,15.5110209 94.4774755,15.2571901 L100.224327,15.2571901 Z" id="Fill-1-Copy-4" fill="#D9D9D9"></path>
                <path d="M8,0.5 C3.85786438,0.5 0.5,3.85786438 0.5,8 L0.5,30 C0.5,34.1421356 3.85786438,37.5 8,37.5 L115,37.5 C119.142136,37.5 122.5,34.1421356 122.5,30 L122.5,8 C122.5,3.85786438 119.142136,0.5 115,0.5 L8,0.5 Z" id="Rectangle-13" stroke="#DEDEDE"></path>
            </g>
        </g>
    </g>
</svg>