<?xml version="1.0" encoding="UTF-8"?>
<svg width="80px" height="80px" viewBox="0 0 80 80" version="1.1" xmlns="http://www.w3.org/2000/svg" xmlns:xlink="http://www.w3.org/1999/xlink">
    <!-- Generator: Sketch 55.2 (78181) - https://sketchapp.com -->
    <title>dashicon-follower</title>
    <desc>Created with Sketch.</desc>
    <g id="Page-1" stroke="none" stroke-width="1" fill="none" fill-rule="evenodd">
        <g id="dashicon-follower">
            <rect id="Rectangle" fill="#FFFFFF" x="0" y="0" width="80" height="80"></rect>
            <g transform="translate(10.000000, 10.000000)">
                <g id="Group_547" transform="translate(0.000000, 1.481481)" fill="#5C5C5C" fill-rule="nonzero">
                    <g id="Group_546">
                        <g id="Group_545">
                            <path d="M56.9444444,13.2755556 L54.8607407,13.2755556 L54.8607407,11.1918519 C54.8607407,9.91341493 53.8243628,8.87703704 52.5459259,8.87703704 C51.267489,8.87703704 50.2311111,9.91341493 50.2311111,11.1918519 L50.2311111,13.2755556 L48.1481481,13.2755556 C46.8697112,13.2755556 45.8333333,14.3119334 45.8333333,15.5903704 C45.8333333,16.8688073 46.8697112,17.9051852 48.1481481,17.9051852 L50.2318519,17.9051852 L50.2318519,19.9888889 C50.2318519,21.2673258 51.2682297,22.3037037 52.5466667,22.3037037 C53.8251036,22.3037037 54.8614815,21.2673258 54.8614815,19.9888889 L54.8614815,17.9051852 L56.9451852,17.9051852 C58.2236221,17.9051852 59.26,16.8688073 59.26,15.5903704 C59.26,14.3119334 58.2236221,13.2755556 56.9451852,13.2755556 L56.9444444,13.2755556 Z" id="Path_651"></path>
                            <path d="M36.5051852,27.3644444 C41.5496883,23.479904 43.5620352,16.8152511 41.5103144,10.7880537 C39.4585936,4.76085637 33.7979522,0.708168636 27.4311111,0.708168636 C21.06427,0.708168636 15.4036286,4.76085637 13.3519078,10.7880537 C11.300187,16.8152511 13.312534,23.479904 18.357037,27.3644444 C7.35760614,31.2214803 -0.00394909636,41.6076242 -1.5880855e-06,53.2637037 C-1.5880855e-06,53.8776308 0.243881575,54.466413 0.677993562,54.900525 C1.11210555,55.3346369 1.70088776,55.5785185 2.31481481,55.5785185 L52.5466667,55.5785185 C53.8251036,55.5785185 54.8614825,54.5421406 54.8614825,53.2637037 C54.8646481,41.6081012 47.5037599,31.2224794 36.5051852,27.3644444 Z M17.1851852,15.5903704 C17.1851852,9.93362744 21.7706647,5.34781667 27.4274076,5.34740768 C33.0841505,5.34699869 37.6702929,9.93214634 37.671111,15.5888892 C37.6719291,21.2456321 33.0871132,25.8321061 27.4303704,25.8333333 C21.7750088,25.8284342 17.1913111,21.2457307 17.1851852,15.5903704 Z M4.74592593,50.9488889 C5.9332651,39.3122057 15.7332695,30.4612549 27.4303704,30.4612549 C39.1274713,30.4612549 48.9274756,39.3122057 50.1148148,50.9488889 L4.74592593,50.9488889 Z" id="Path_652"></path>
                        </g>
                    </g>
                </g>
                <rect id="Rectangle_221" x="0" y="0" width="59.2592593" height="59.2592593"></rect>
            </g>
        </g>
    </g>
</svg>