<?xml version="1.0" encoding="UTF-8"?>
<svg width="80px" height="80px" viewBox="0 0 80 80" version="1.1" xmlns="http://www.w3.org/2000/svg" xmlns:xlink="http://www.w3.org/1999/xlink">
    <!-- Generator: Sketch 55.2 (78181) - https://sketchapp.com -->
    <title>dashicon-order</title>
    <desc>Created with Sketch.</desc>
    <g id="Page-1" stroke="none" stroke-width="1" fill="none" fill-rule="evenodd">
        <g id="dashicon-order">
            <rect id="Rectangle" fill="#FFFFFF" x="0" y="0" width="80" height="80"></rect>
            <g transform="translate(10.000000, 10.000000)">
                <g id="Group_551" fill="#5C5C5C" fill-rule="nonzero">
                    <g id="Group_550">
                        <g id="Group_548" transform="translate(0.000000, 11.250000)">
                            <polygon id="Path_653" points="52.5 33.75 21.273 33.75 8.148 3.75 0 3.75 0 0 10.602 0 23.727 30 52.5 30"></polygon>
                        </g>
                        <path d="M33.75,54.375 C33.75,57.4816017 31.2316017,60 28.125,60 C25.0183983,60 22.5,57.4816017 22.5,54.375 C22.5,51.2683983 25.0183983,48.75 28.125,48.75 C31.2316017,48.75 33.75,51.2683983 33.75,54.375 Z" id="Path_654"></path>
                        <path d="M52.5,54.375 C52.5,57.4816017 49.9816017,60 46.875,60 C43.7683983,60 41.25,57.4816017 41.25,54.375 C41.25,51.2683983 43.7683983,48.75 46.875,48.75 C49.9816017,48.75 52.5,51.2683983 52.5,54.375 Z" id="Path_655"></path>
                        <g id="Group_549" transform="translate(33.750000, 0.000000)">
                            <path d="M13.125,0 C5.87626266,0 -7.10542736e-15,5.87626266 -7.10542736e-15,13.125 C-7.10542736e-15,20.3737373 5.87626266,26.25 13.125,26.25 C20.3737373,26.25 26.25,20.3737373 26.25,13.125 C26.25,9.64403357 24.8671915,6.30563846 22.4057765,3.8442235 C19.9443615,1.38280853 16.6059664,0 13.125,0 L13.125,0 Z M20.625,15 L15,15 L15,20.625 L11.25,20.625 L11.25,15 L5.625,15 L5.625,11.25 L11.25,11.25 L11.25,5.625 L15,5.625 L15,11.25 L20.625,11.25 L20.625,15 Z" id="Path_656"></path>
                        </g>
                        <path d="M46.875,30 C39.747089,29.9785333 33.4041977,25.4732123 31.0365,18.75 L18.75,18.75 L26.25,37.5 L52.5,37.5 L56.829,26.682 C53.9524791,28.8264659 50.4628963,29.9896602 46.875,30 Z" id="Path_657"></path>
                    </g>
                </g>
                <rect id="Rectangle_222" x="0" y="0" width="60" height="60"></rect>
            </g>
        </g>
    </g>
</svg>