<?xml version="1.0" encoding="UTF-8"?>
<svg width="80px" height="80px" viewBox="0 0 80 80" version="1.1" xmlns="http://www.w3.org/2000/svg" xmlns:xlink="http://www.w3.org/1999/xlink">
    <!-- Generator: Sketch 55.2 (78181) - https://sketchapp.com -->
    <title>dashicon-saves</title>
    <desc>Created with Sketch.</desc>
    <g id="Page-1" stroke="none" stroke-width="1" fill="none" fill-rule="evenodd">
        <g id="dashicon-saves">
            <rect id="Rectangle" fill="#FFFFFF" x="0" y="0" width="80" height="80"></rect>
            <g transform="translate(10.000000, 10.000000)">
                <g id="Group_553" transform="translate(0.000000, 2.222222)" fill="#5C5C5C" fill-rule="nonzero">
                    <g id="Group_552">
                        <path d="M58.3592593,11.542963 C56.3503014,5.81354027 51.3756638,1.63649863 45.3850887,0.648973378 C39.3945136,-0.338551878 33.3423802,2.02076529 29.6007407,6.80222222 C26.4524393,2.78508599 21.6319884,0.438503163 16.5281481,0.438518519 L16.5281481,0.438518519 C11.119937,0.456738813 6.05448545,3.08950416 2.93185185,7.50518519 C1.38969648,9.68311284 0.421584502,12.2147257 0.117037037,14.8659259 C-0.143612997,17.3727628 0.0699829986,19.9062626 0.746666667,22.3340741 C2.11777778,27.5133333 5.15111111,32.2385185 7.45555556,35.2896296 C12.4644444,41.9244444 19.3518519,47.9459259 28.5111111,53.7 L29.6059259,54.3874074 L30.7,53.7 C41.9659259,46.6222222 49.8288889,39.1511111 54.7407407,30.857037 C57.5651852,26.0866667 59.037037,21.837037 59.2385185,17.8651852 C59.3599309,15.720628 59.0612516,13.5730056 58.3592593,11.542963 Z M29.6044444,49.52 C21.4214815,44.2511111 15.2414815,38.7792593 10.737037,32.8111111 C8.65555556,30.0533333 5.92592593,25.8155556 4.72296296,21.2814815 C4.18012274,19.3523533 4.00423753,17.3384676 4.20444444,15.3444444 C4.43083141,13.373233 5.15026167,11.4908427 6.2962963,9.87111111 C8.83588011,6.25217216 13.0983167,4.24404629 17.5058662,4.59004076 C21.9134157,4.93603522 25.8102946,7.58467073 27.7540741,11.5555556 L29.6059259,15.3237037 L31.4481481,11.5555556 C33.6731007,7.04067937 38.3857109,4.29744064 43.4104106,4.59225061 C48.4351104,4.88706058 52.7945872,8.16257822 54.4762963,12.9066667 C55.0002835,14.4331937 55.2212059,16.0473358 55.1266667,17.6585185 C54.9585185,20.9481481 53.6733333,24.5814815 51.197037,28.7637037 C46.7866667,36.2111111 39.7155556,43.0103704 29.6044444,49.52 Z" id="Path_658"></path>
                    </g>
                </g>
                <rect id="Rectangle_223" x="0" y="0" width="59.2592593" height="59.2592593"></rect>
            </g>
        </g>
    </g>
</svg>