<?xml version="1.0" encoding="UTF-8"?>
<svg width="80px" height="80px" viewBox="0 0 80 80" version="1.1" xmlns="http://www.w3.org/2000/svg" xmlns:xlink="http://www.w3.org/1999/xlink">
    <!-- Generator: Sketch 55.2 (78181) - https://sketchapp.com -->
    <title>dashicon-account</title>
    <desc>Created with Sketch.</desc>
    <g id="Page-1" stroke="none" stroke-width="1" fill="none" fill-rule="evenodd">
        <g id="dashicon-account">
            <rect id="Rectangle" fill="#FFFFFF" x="0" y="0" width="80" height="80"></rect>
            <g transform="translate(11.000000, 10.000000)">
                <g id="Group_544" transform="translate(0.000000, 0.301463)" fill="#5C5C5C" fill-rule="nonzero">
                    <path d="M48.6065854,20.1921951 C53.9949155,20.1857426 58.3611846,15.8188188 58.3668293,10.4304878 C58.4294347,6.90553562 56.5807194,3.62237407 53.534196,1.84814119 C50.4876725,0.073908317 46.7198151,0.0860928602 43.6848303,1.87999219 C40.6498455,3.67389153 38.8224029,6.96894108 38.9078049,10.4934146 C38.913451,15.8475627 43.2524373,20.186549 48.6065854,20.1921951 Z M48.6065854,4.17219512 C51.1521637,4.18377542 53.4400177,5.72789963 54.4030046,8.08432904 C55.3659915,10.4407585 54.8143968,13.1452619 53.0055055,14.9363553 C51.1966142,16.7274487 48.4867891,17.2522756 46.1399964,16.2660366 C43.7932037,15.2797976 42.2717762,12.9767879 42.2852756,10.4312195 C42.3234268,6.96609077 45.1412497,4.17599273 48.6065854,4.17219512 Z" id="Path_647"></path>
                    <path d="M46.4217073,14.3678049 L46.5256098,14.3414634 C46.5739936,14.3466488 46.6214787,14.3582126 46.6668293,14.3758537 C46.8050619,14.4444203 46.9532102,14.4908401 47.1058537,14.5134146 C47.1786357,14.5373713 47.2532828,14.5552377 47.3290244,14.5668293 C47.3822568,14.5746466 47.4348389,14.5863859 47.4863415,14.6019512 C47.5728486,14.6309636 47.6620918,14.6510678 47.7526829,14.6619512 L47.7526829,15.7046341 L49.7209756,15.7046341 L49.7209756,14.5339024 C49.8306878,14.4929393 49.936079,14.4412241 50.0356098,14.3795122 C50.1568905,14.3273162 50.2707912,14.2594186 50.3743902,14.177561 L50.5419512,14.052439 C50.6596912,13.9433974 50.7638573,13.82056 50.8521951,13.6865854 C50.9410458,13.592203 51.0150591,13.4848837 51.0717073,13.3682927 C51.0980488,13.32 51.1243902,13.2695122 51.1587805,13.2219512 L51.3563415,12.6695122 C51.4159746,12.4646179 51.4407101,12.2511506 51.4295122,12.0380488 C51.437334,11.8592121 51.4125397,11.6804451 51.3563415,11.5104878 L51.3285366,11.4058537 C51.3017322,11.2782795 51.2521597,11.156579 51.1821951,11.0465854 L51.1507317,10.9785366 C51.0943575,10.8358854 51.0117069,10.7050839 50.9070732,10.5929268 C50.873251,10.5568318 50.8419574,10.5184481 50.8134146,10.4780488 C50.7631448,10.4076368 50.7073595,10.3413305 50.6465854,10.2797561 C50.52714,10.148421 50.3829125,10.041991 50.2221951,9.96658537 C50.1232887,9.8899008 50.0141941,9.82734995 49.8980488,9.78073171 L49.7831707,9.7302439 C49.7358271,9.71020856 49.6905003,9.68570758 49.6478049,9.65707317 C49.5608607,9.60173544 49.4681114,9.55609692 49.3712195,9.52097561 C49.2465473,9.48415973 49.1243483,9.43943492 49.0053659,9.38707317 L48.977561,9.34829268 L48.8926829,9.34829268 C48.8056098,9.26341463 48.7082927,9.23121951 48.6863415,9.24512195 C48.618258,9.18247369 48.5366239,9.13639806 48.4478049,9.1104878 L48.3314634,8.99414634 L48.3314634,8.89097561 L48.2809756,8.83902439 L48.2809756,8.83902439 L48.2882927,8.59317073 C48.2965854,8.56926829 48.3046341,8.54292683 48.312439,8.51414634 C48.332171,8.4746754 48.3490436,8.43383871 48.3629268,8.39195122 L48.4829268,8.27560976 L48.6643902,8.26243902 L48.737561,8.22365854 L49.0478049,8.22365854 L49.2870732,8.29243902 L49.3734146,8.29243902 C49.4312561,8.31078247 49.4904681,8.32448443 49.5504878,8.33341463 C49.6210397,8.35969969 49.6949307,8.37595571 49.77,8.38170732 L50.5221951,8.67439024 L50.7570732,7.03243902 L50.7570732,6.53853659 L50.2726829,6.41780488 L50.1995122,6.4002439 C50.1533078,6.3794078 50.1037445,6.36701699 50.0531707,6.36365854 C49.9699759,6.32646076 49.8807295,6.30464497 49.7897561,6.29926829 C49.7182049,6.27669319 49.6447224,6.26077197 49.5702439,6.25170732 L49.5702439,5.22 L47.6004878,5.22 L47.6004878,6.34097561 C47.4910489,6.38227462 47.3857122,6.43371813 47.2858537,6.49463415 C47.1095386,6.57235812 46.9518709,6.68686678 46.8234146,6.8304878 C46.7086987,6.93700616 46.6065688,7.05632129 46.5190244,7.18609756 C46.3789942,7.34411942 46.2786591,7.53325118 46.2263415,7.73780488 L46.0697561,8.20536585 C46.0126608,8.41076478 45.9879735,8.62381653 45.9965854,8.83682927 C45.9888125,9.01566362 46.0136056,9.19442182 46.0697561,9.36439024 L46.0990244,9.46682927 C46.1247431,9.59404985 46.1744046,9.71522389 46.2453659,9.82390244 C46.2746341,9.88317073 46.3185366,9.95780488 46.3631707,10.0317073 C46.3960976,10.0873171 46.4297561,10.1421951 46.4517073,10.1860976 L46.5190244,10.2804878 C46.5532861,10.3163929 46.5848362,10.354791 46.6134146,10.3953659 C46.6658468,10.4673629 46.7235674,10.5353558 46.7860976,10.5987805 C46.90392,10.7282587 47.0461534,10.8331931 47.2046341,10.907561 C47.3047739,10.9847694 47.4150808,11.0478019 47.532439,11.094878 L47.6414634,11.142439 C47.7242556,11.1741516 47.8038757,11.2135942 47.8792683,11.2602439 C47.9268293,11.2873171 47.9707317,11.3114634 48.0095122,11.3334146 L48.0826829,11.3619512 C48.1971845,11.3971698 48.3095653,11.4389462 48.4192683,11.4870732 L48.5312195,11.5221951 C48.5828236,11.5852892 48.6584009,11.624006 48.7397561,11.6290244 C48.8014399,11.6944864 48.87366,11.7491461 48.9534146,11.7907317 L49.0265854,11.8639024 C49.0353659,11.8865854 49.044878,11.9114634 49.0565854,11.9370732 C49.0682927,11.9626829 49.0712195,11.9941463 49.0778049,12.0197561 C49.0854653,12.043677 49.0913352,12.0681348 49.0953659,12.0929268 L49.0997561,12.2985366 L48.9453659,12.4536585 C48.913554,12.4892532 48.8753278,12.5185433 48.8326829,12.54 L48.7726829,12.5729268 C48.7304041,12.586045 48.6894841,12.603197 48.6504878,12.6241463 L48.6029268,12.6373171 C48.5790001,12.6449569 48.5545439,12.6508264 48.5297561,12.654878 L47.8617073,12.654878 C47.8369677,12.6505899 47.8125276,12.6447243 47.7885366,12.6373171 C47.7286287,12.6168219 47.6659735,12.6054749 47.6026829,12.6036585 C47.5518278,12.5878808 47.5027765,12.5667887 47.4563415,12.5407317 C47.3822455,12.5045996 47.3041444,12.4773379 47.2236585,12.4595122 C47.1969688,12.453845 47.1707847,12.4460143 47.1453659,12.4360976 L47.0685366,12.3980488 L47.0414634,12.3980488 C46.9962564,12.3761751 46.9482401,12.3606622 46.8987805,12.3519512 C46.8641673,12.334465 46.8278884,12.3204927 46.7904878,12.3102439 L46.0756098,11.9531707 L45.8429268,13.7956098 L45.8429268,14.2119512 L46.0917073,14.2953659 L46.4217073,14.3678049 Z" id="Path_648"></path>
                    <path d="M58.3690244,54.8480488 L54.2780488,54.8480488 L54.2780488,23.2631707 L42.924878,23.2631707 L42.924878,54.8480488 L41.3882927,54.8480488 L41.3882927,32.0239024 L29.9817073,32.0239024 L29.9817073,54.8480488 L28.445122,54.8480488 L28.445122,30.4595122 L17.0919512,30.4595122 L17.0919512,54.8480488 L15.5553659,54.8480488 L15.5268293,35.9253659 L4.09317073,35.9253659 L4.14585366,54.8480488 L0,54.8480488 L0,58.8102439 L52.9756098,58.8102439 L58.3814634,58.8343902 L58.3690244,54.8480488 Z M46.8812195,54.8480488 L46.8812195,27.1339024 L50.3239024,27.1339024 L50.3239024,54.8480488 L46.8812195,54.8480488 Z M33.9365854,54.8480488 L33.9365854,36.0087805 L37.38,36.0087805 L37.38,54.8480488 L33.9365854,54.8480488 Z M21.047561,54.8480488 L21.047561,34.6778049 L24.4917073,34.6778049 L24.4917073,54.8480488 L21.047561,54.8480488 Z M8.10365854,54.8480488 L8.10365854,39.8912195 L11.5470732,39.8912195 L11.5470732,54.8480488 L8.10365854,54.8480488 Z" id="Path_649"></path>
                    <polygon id="Path_650" points="19.3353659 23.1029268 30.815122 27.8590244 40.2665854 19.9807317 37.9287805 17.1768293 30.1726829 23.6429268 18.9131707 18.9746341 4.06609756 29.0597561 6.11487805 32.0802439"></polygon>
                </g>
                <rect id="Rectangle_220" x="0.156585366" y="0.731707317" width="58.38" height="58.38"></rect>
            </g>
        </g>
    </g>
</svg>