<?xml version="1.0" encoding="UTF-8"?>
<!-- Generator: Adobe Illustrator 16.0.0, SVG Export Plug-In . SVG Version: 6.00 Build 0)  -->
<!DOCTYPE svg PUBLIC "-//W3C//DTD SVG 1.1//EN" "http://www.w3.org/Graphics/SVG/1.1/DTD/svg11.dtd">
<svg version="1.1" id="Layer_1" xmlns:x="http://ns.adobe.com/Extensibility/1.0/" xmlns:i="http://ns.adobe.com/AdobeIllustrator/10.0/" xmlns:graph="http://ns.adobe.com/Graphs/1.0/" xmlns="http://www.w3.org/2000/svg" xmlns:xlink="http://www.w3.org/1999/xlink" x="0px" y="0px" width="148.925px" height="48.695px" viewBox="0 0 148.925 48.695" enable-background="new 0 0 148.925 48.695" xml:space="preserve">
<metadata>
	<sfw xmlns="http://ns.adobe.com/SaveForWeb/1.0/">
		<slices/>
		<sliceSourceBounds height="518.332" width="1450.856" y="-533.657" x="-871.156" bottomLeftOrigin="true"/>
	</sfw>
</metadata>
<g>
	<path fill="#4B4A4B" d="M38.733,17.215c0-14.265-0.369-12.666-1.476-13.895c-1.036-1.151-15.864-3.057-17.754-3.295L19.45,0   c0,0-0.029,0.003-0.073,0.009C19.333,0.003,19.305,0,19.305,0L19.25,0.025C17.361,0.264,2.533,2.169,1.497,3.32   C0.39,4.55,0.021,2.951,0.021,17.215S-0.41,31.91,2.603,34.923s14.511,13.772,16.478,13.772c0.107,0,0.196-0.031,0.296-0.043   c0.1,0.013,0.189,0.043,0.296,0.043c1.967,0,13.465-10.759,16.478-13.772S38.733,31.48,38.733,17.215z M30.443,18.858   L17.871,30.894c-0.193,0.185-0.442,0.278-0.691,0.278c-0.243,0-0.486-0.088-0.678-0.265l-8.177-7.535   c-0.195-0.18-0.311-0.43-0.321-0.694c-0.011-0.265,0.084-0.524,0.264-0.719l3.389-3.677c0.374-0.407,1.006-0.433,1.413-0.058   l4.032,3.715l8.501-8.138c0.398-0.382,1.032-0.369,1.414,0.031l3.458,3.611c0.184,0.191,0.283,0.448,0.278,0.713   C30.746,18.423,30.635,18.675,30.443,18.858z"/>
	<g>
		<g>
			<path fill="#4B4A4B" d="M54.025,16.924c-0.65-0.248-1.232-0.52-1.748-0.816c-0.516-0.296-0.955-0.649-1.318-1.06     c-0.363-0.411-0.645-0.902-0.845-1.476c-0.201-0.573-0.301-1.26-0.301-2.063c0-0.974,0.167-1.833,0.501-2.579     c0.334-0.745,0.807-1.37,1.418-1.876c0.611-0.506,1.346-0.888,2.206-1.146c0.859-0.258,1.824-0.387,2.894-0.387     c0.974,0,1.886,0.086,2.736,0.258c0.85,0.172,1.743,0.42,2.679,0.745c-0.114,1.108-0.42,2.197-0.917,3.266     c-0.287-0.114-0.578-0.229-0.874-0.344c-0.296-0.115-0.611-0.21-0.945-0.287c-0.334-0.076-0.712-0.138-1.132-0.186     c-0.42-0.047-0.898-0.072-1.433-0.072c-0.325,0-0.654,0.029-0.988,0.086c-0.334,0.058-0.635,0.163-0.902,0.315     c-0.268,0.153-0.487,0.377-0.659,0.673c-0.172,0.296-0.258,0.683-0.258,1.16c0,0.382,0.067,0.702,0.201,0.96     c0.133,0.258,0.315,0.478,0.544,0.659c0.229,0.182,0.487,0.334,0.773,0.458c0.287,0.125,0.573,0.244,0.859,0.358l1.719,0.659     c0.726,0.287,1.384,0.583,1.977,0.888c0.592,0.306,1.093,0.683,1.504,1.131c0.411,0.449,0.73,0.994,0.959,1.633     c0.229,0.64,0.344,1.428,0.344,2.364c0,0.974-0.177,1.862-0.53,2.664c-0.354,0.802-0.864,1.49-1.533,2.063     c-0.669,0.573-1.495,1.022-2.478,1.347c-0.984,0.324-2.116,0.487-3.395,0.487c-0.63,0-1.194-0.019-1.69-0.057     c-0.497-0.039-0.97-0.101-1.418-0.187s-0.893-0.195-1.332-0.329c-0.439-0.134-0.898-0.296-1.375-0.487     c0.057-0.554,0.162-1.132,0.315-1.733c0.153-0.602,0.334-1.208,0.544-1.819c0.802,0.325,1.557,0.569,2.263,0.731     s1.461,0.243,2.263,0.243c1.204,0,2.149-0.224,2.836-0.673s1.032-1.132,1.032-2.049c0-0.458-0.082-0.84-0.244-1.146     c-0.163-0.305-0.373-0.563-0.63-0.773c-0.258-0.21-0.549-0.387-0.874-0.53c-0.325-0.144-0.659-0.282-1.002-0.416L54.025,16.924z"/>
			<path fill="#4B4A4B" d="M66.028,5.866h11.689c0.114,0.573,0.172,1.156,0.172,1.748c0,0.63-0.058,1.232-0.172,1.805h-7.506v4.469     h5.959c0.115,0.611,0.172,1.203,0.172,1.776c0,0.611-0.057,1.213-0.172,1.805h-5.959v5.443h7.707     c0.115,0.573,0.172,1.156,0.172,1.748c0,0.63-0.057,1.232-0.172,1.805h-11.89V5.866z"/>
			<path fill="#4B4A4B" d="M94.85,22.568c0.248,0.535,0.453,1.084,0.616,1.647c0.162,0.563,0.282,1.132,0.358,1.705     c-0.994,0.363-1.887,0.602-2.679,0.716c-0.793,0.115-1.647,0.172-2.564,0.172c-1.624,0-3.046-0.263-4.269-0.788     c-1.223-0.525-2.249-1.261-3.08-2.206c-0.831-0.946-1.457-2.067-1.876-3.367c-0.42-1.298-0.63-2.712-0.63-4.24     c0-1.528,0.219-2.946,0.659-4.254c0.439-1.308,1.074-2.439,1.905-3.395c0.831-0.955,1.853-1.7,3.066-2.234     c1.212-0.535,2.593-0.802,4.14-0.802c0.917,0,1.762,0.057,2.536,0.172c0.773,0.114,1.609,0.354,2.507,0.716     c-0.039,0.573-0.153,1.131-0.344,1.676c-0.191,0.544-0.401,1.094-0.63,1.647c-0.669-0.229-1.261-0.391-1.776-0.487     c-0.516-0.095-1.127-0.143-1.833-0.143c-1.833,0-3.242,0.597-4.226,1.791c-0.984,1.194-1.475,2.965-1.475,5.314     c0,4.661,1.977,6.991,5.93,6.991c0.707,0,1.328-0.047,1.862-0.143S94.181,22.798,94.85,22.568z"/>
			<path fill="#4B4A4B" d="M98.833,5.866c0.362-0.058,0.716-0.095,1.06-0.115c0.344-0.019,0.697-0.029,1.06-0.029     c0.325,0,0.659,0.01,1.003,0.029c0.344,0.02,0.697,0.057,1.06,0.115v10.687c0,1.165,0.043,2.163,0.129,2.994     s0.258,1.519,0.516,2.063c0.258,0.544,0.621,0.945,1.089,1.203c0.468,0.258,1.074,0.387,1.819,0.387     c0.745,0,1.346-0.129,1.805-0.387s0.816-0.659,1.075-1.203c0.258-0.544,0.43-1.232,0.516-2.063s0.129-1.829,0.129-2.994V5.866     c0.382-0.058,0.745-0.095,1.088-0.115c0.344-0.019,0.678-0.029,1.003-0.029c0.344,0,0.692,0.01,1.046,0.029     c0.353,0.02,0.711,0.057,1.074,0.115V17.44c0,1.395-0.115,2.669-0.344,3.825c-0.229,1.156-0.64,2.144-1.232,2.965     c-0.592,0.822-1.385,1.457-2.378,1.905c-0.994,0.449-2.254,0.673-3.782,0.673c-1.528,0-2.789-0.225-3.782-0.673     c-0.994-0.448-1.786-1.083-2.378-1.905c-0.592-0.821-1.003-1.809-1.232-2.965c-0.229-1.156-0.344-2.431-0.344-3.825V5.866z"/>
			<path fill="#4B4A4B" d="M118.371,5.866c0.84-0.095,1.628-0.176,2.364-0.244c0.735-0.067,1.551-0.1,2.449-0.1     c1.05,0,2.086,0.096,3.109,0.286c1.021,0.191,1.943,0.53,2.765,1.017c0.821,0.487,1.485,1.146,1.991,1.977     c0.506,0.831,0.759,1.886,0.759,3.166c0,0.764-0.096,1.437-0.286,2.02c-0.191,0.583-0.435,1.094-0.731,1.533     c-0.296,0.44-0.616,0.816-0.959,1.132c-0.344,0.315-0.669,0.568-0.974,0.759l-0.487,0.315l5.014,8.709     c-0.382,0.038-0.784,0.076-1.204,0.115c-0.42,0.038-0.85,0.057-1.289,0.057c-0.726,0-1.442-0.057-2.149-0.172l-5.386-9.569     l0.688-0.344c0.267-0.133,0.592-0.305,0.974-0.516c0.382-0.21,0.749-0.473,1.103-0.788c0.354-0.315,0.654-0.697,0.903-1.146     c0.248-0.448,0.373-0.979,0.373-1.59c0-1.204-0.344-2.086-1.032-2.65c-0.688-0.563-1.576-0.845-2.665-0.845     c-0.42,0-0.802,0.029-1.146,0.086v17.391c-0.344,0.038-0.688,0.072-1.031,0.1c-0.344,0.029-0.678,0.043-1.002,0.043     c-0.325,0-0.669-0.01-1.032-0.028c-0.363-0.02-0.735-0.058-1.117-0.115V5.866z"/>
			<path fill="#4B4A4B" d="M135.675,5.866h11.689c0.114,0.573,0.172,1.156,0.172,1.748c0,0.63-0.058,1.232-0.172,1.805h-7.506v4.469     h5.959c0.115,0.611,0.172,1.203,0.172,1.776c0,0.611-0.057,1.213-0.172,1.805h-5.959v5.443h7.707     c0.115,0.573,0.172,1.156,0.172,1.748c0,0.63-0.057,1.232-0.172,1.805h-11.89V5.866z"/>
		</g>
	</g>
	<g>
		<g>
			<path fill="#4B4A4B" d="M49.59,41.805c0.295,0.107,0.603,0.201,0.924,0.281c0.321,0.08,0.714,0.121,1.178,0.121     c0.731,0,1.278-0.149,1.64-0.449c0.361-0.299,0.542-0.703,0.542-1.212c0-0.25-0.038-0.464-0.114-0.643     c-0.076-0.178-0.189-0.333-0.341-0.462s-0.341-0.248-0.569-0.354c-0.228-0.107-0.494-0.223-0.797-0.348l-0.763-0.308     c-0.259-0.107-0.496-0.226-0.709-0.355c-0.214-0.129-0.4-0.288-0.556-0.475c-0.156-0.188-0.279-0.404-0.368-0.649     c-0.089-0.246-0.134-0.538-0.134-0.877c0-0.813,0.277-1.448,0.831-1.908c0.553-0.459,1.33-0.689,2.33-0.689     c0.428,0,0.834,0.036,1.218,0.107c0.384,0.072,0.723,0.161,1.018,0.268c-0.045,0.375-0.143,0.745-0.294,1.111     c-0.241-0.089-0.52-0.169-0.837-0.241c-0.317-0.071-0.676-0.107-1.078-0.107c-0.563,0-0.996,0.114-1.299,0.341     c-0.304,0.228-0.456,0.569-0.456,1.024c0,0.188,0.038,0.354,0.114,0.502c0.076,0.147,0.176,0.277,0.301,0.388     c0.125,0.112,0.272,0.212,0.441,0.301c0.169,0.089,0.348,0.17,0.536,0.241l0.75,0.294c0.357,0.143,0.674,0.292,0.951,0.449     c0.276,0.156,0.513,0.339,0.709,0.549c0.196,0.21,0.346,0.458,0.449,0.743c0.103,0.286,0.154,0.621,0.154,1.004     c0,0.919-0.317,1.645-0.951,2.175c-0.634,0.531-1.522,0.797-2.665,0.797c-0.277,0-0.527-0.009-0.75-0.027     c-0.223-0.018-0.431-0.044-0.623-0.08c-0.192-0.036-0.377-0.081-0.556-0.134c-0.179-0.053-0.362-0.111-0.549-0.174     c0.018-0.196,0.058-0.397,0.121-0.603C49.452,42.202,49.519,42.001,49.59,41.805z"/>
			<path fill="#4B4A4B" d="M56.526,41.805c0.295,0.107,0.603,0.201,0.924,0.281c0.321,0.08,0.714,0.121,1.178,0.121     c0.731,0,1.278-0.149,1.64-0.449c0.361-0.299,0.542-0.703,0.542-1.212c0-0.25-0.038-0.464-0.114-0.643     c-0.076-0.178-0.189-0.333-0.341-0.462s-0.341-0.248-0.569-0.354c-0.228-0.107-0.494-0.223-0.797-0.348l-0.763-0.308     c-0.259-0.107-0.496-0.226-0.709-0.355c-0.214-0.129-0.4-0.288-0.556-0.475c-0.156-0.188-0.279-0.404-0.368-0.649     c-0.089-0.246-0.134-0.538-0.134-0.877c0-0.813,0.277-1.448,0.831-1.908c0.553-0.459,1.33-0.689,2.33-0.689     c0.428,0,0.834,0.036,1.218,0.107c0.384,0.072,0.723,0.161,1.018,0.268c-0.045,0.375-0.143,0.745-0.294,1.111     c-0.241-0.089-0.52-0.169-0.837-0.241c-0.317-0.071-0.676-0.107-1.078-0.107c-0.563,0-0.996,0.114-1.299,0.341     c-0.304,0.228-0.456,0.569-0.456,1.024c0,0.188,0.038,0.354,0.114,0.502c0.076,0.147,0.176,0.277,0.301,0.388     c0.125,0.112,0.272,0.212,0.441,0.301c0.169,0.089,0.348,0.17,0.536,0.241l0.75,0.294c0.357,0.143,0.674,0.292,0.951,0.449     c0.276,0.156,0.513,0.339,0.709,0.549c0.196,0.21,0.346,0.458,0.449,0.743c0.103,0.286,0.154,0.621,0.154,1.004     c0,0.919-0.317,1.645-0.951,2.175c-0.634,0.531-1.522,0.797-2.665,0.797c-0.277,0-0.527-0.009-0.75-0.027     c-0.223-0.018-0.431-0.044-0.623-0.08c-0.192-0.036-0.377-0.081-0.556-0.134c-0.179-0.053-0.362-0.111-0.549-0.174     c0.018-0.196,0.058-0.397,0.121-0.603C56.388,42.202,56.455,42.001,56.526,41.805z"/>
			<path fill="#4B4A4B" d="M64.064,33.637c0.098-0.018,0.203-0.031,0.314-0.04c0.112-0.009,0.23-0.014,0.355-0.014     c0.116,0,0.232,0.005,0.348,0.014c0.116,0.009,0.228,0.022,0.335,0.04v8.422h3.775c0.018,0.098,0.029,0.201,0.034,0.308     c0.004,0.107,0.007,0.206,0.007,0.294c0,0.214-0.014,0.415-0.041,0.603h-5.128V33.637z"/>
			<path fill="#4B4A4B" d="M73.865,33.637h5.289c0.027,0.179,0.041,0.375,0.041,0.589c0,0.098-0.002,0.201-0.007,0.308     c-0.004,0.107-0.016,0.206-0.034,0.295h-3.923v2.758h3.133c0.018,0.089,0.031,0.186,0.04,0.288     c0.009,0.103,0.013,0.203,0.013,0.301s-0.004,0.201-0.013,0.308c-0.009,0.107-0.022,0.205-0.04,0.294h-3.133v3.294h4.03     c0.027,0.178,0.04,0.375,0.04,0.589c0,0.098-0.002,0.201-0.007,0.308c-0.004,0.107-0.016,0.205-0.033,0.294h-5.396V33.637z"/>
			<path fill="#4B4A4B" d="M81.042,33.637c0.098-0.018,0.203-0.031,0.314-0.04c0.112-0.009,0.217-0.014,0.315-0.014     s0.203,0.005,0.314,0.014s0.216,0.022,0.315,0.04l4.191,7.23v-7.23c0.107-0.018,0.218-0.031,0.334-0.04     c0.116-0.009,0.232-0.014,0.348-0.014c0.098,0,0.201,0.005,0.308,0.014c0.107,0.009,0.209,0.022,0.308,0.04v9.627     c-0.098,0.018-0.203,0.031-0.314,0.04c-0.112,0.009-0.216,0.014-0.314,0.014c-0.099,0-0.203-0.005-0.315-0.014     s-0.216-0.022-0.314-0.04l-4.204-7.19v7.19c-0.099,0.018-0.204,0.031-0.315,0.04c-0.112,0.009-0.221,0.014-0.328,0.014     c-0.116,0-0.23-0.005-0.341-0.014c-0.112-0.009-0.212-0.022-0.301-0.04V33.637z"/>
			<path fill="#4B4A4B" d="M96.292,41.858c0.196,0.384,0.322,0.754,0.375,1.111c-0.375,0.161-0.759,0.277-1.151,0.348     c-0.393,0.071-0.817,0.107-1.272,0.107c-0.696,0-1.323-0.114-1.881-0.341c-0.558-0.228-1.029-0.553-1.413-0.978     c-0.384-0.424-0.678-0.939-0.883-1.546c-0.206-0.607-0.308-1.29-0.308-2.049c0-0.768,0.103-1.461,0.308-2.082     c0.205-0.62,0.5-1.149,0.883-1.586c0.384-0.437,0.853-0.774,1.406-1.011c0.553-0.236,1.173-0.355,1.861-0.355     c0.509,0,0.946,0.036,1.312,0.107c0.366,0.072,0.692,0.156,0.978,0.254c-0.018,0.206-0.056,0.395-0.114,0.569     c-0.058,0.174-0.127,0.359-0.208,0.556c-0.134-0.044-0.263-0.085-0.388-0.121s-0.259-0.067-0.402-0.094s-0.301-0.047-0.475-0.06     c-0.174-0.014-0.373-0.02-0.596-0.02c-0.973,0-1.73,0.33-2.27,0.991c-0.541,0.661-0.81,1.611-0.81,2.852     c0,0.634,0.076,1.183,0.228,1.647c0.151,0.464,0.366,0.848,0.643,1.151c0.276,0.304,0.609,0.531,0.998,0.683     s0.823,0.228,1.305,0.228c0.375,0,0.714-0.031,1.018-0.094C95.739,42.064,96.024,41.975,96.292,41.858z"/>
			<path fill="#4B4A4B" d="M98.448,33.624c0.196-0.018,0.375-0.036,0.536-0.054c0.161-0.018,0.319-0.034,0.475-0.047     s0.319-0.024,0.489-0.034c0.169-0.009,0.357-0.013,0.563-0.013c0.455,0,0.906,0.045,1.352,0.134     c0.446,0.089,0.844,0.246,1.192,0.469s0.631,0.524,0.85,0.904s0.328,0.859,0.328,1.439c0,0.348-0.058,0.665-0.174,0.951     c-0.116,0.286-0.263,0.54-0.441,0.763c-0.179,0.223-0.382,0.417-0.609,0.582c-0.228,0.166-0.449,0.301-0.663,0.409l-0.161,0.08     l2.799,4.057c-0.241,0.027-0.514,0.04-0.817,0.04c-0.241,0-0.482-0.013-0.723-0.04l-3.08-4.458v-0.054l0.107-0.027     c0.241-0.063,0.495-0.147,0.763-0.254c0.268-0.107,0.515-0.248,0.743-0.422c0.228-0.174,0.417-0.383,0.569-0.629     c0.151-0.246,0.228-0.542,0.228-0.891c0-0.643-0.19-1.12-0.569-1.433c-0.38-0.313-0.891-0.469-1.533-0.469     c-0.152,0-0.292,0.005-0.422,0.014s-0.274,0.022-0.435,0.04v8.583c-0.098,0.009-0.208,0.018-0.328,0.027     c-0.121,0.009-0.234,0.013-0.341,0.013c-0.107,0-0.223-0.002-0.348-0.006c-0.125-0.005-0.241-0.016-0.348-0.034V33.624z"/>
			<path fill="#4B4A4B" d="M108.262,39.743l-3.053-6.105c0.116-0.018,0.241-0.031,0.375-0.04c0.134-0.009,0.268-0.014,0.402-0.014     c0.116,0,0.243,0.005,0.382,0.014c0.138,0.009,0.261,0.022,0.368,0.04l2.249,4.78l2.223-4.78c0.116-0.018,0.232-0.031,0.348-0.04     s0.236-0.014,0.362-0.014c0.125,0,0.25,0.005,0.375,0.014s0.246,0.022,0.362,0.04l-3.013,6.105v3.521     c-0.116,0.018-0.232,0.031-0.348,0.04c-0.116,0.009-0.232,0.014-0.348,0.014c-0.116,0-0.234-0.005-0.355-0.014     c-0.12-0.009-0.229-0.022-0.328-0.04V39.743z"/>
			<path fill="#4B4A4B" d="M114.073,33.624c0.134-0.018,0.292-0.036,0.476-0.054c0.183-0.018,0.375-0.034,0.576-0.047     c0.201-0.013,0.401-0.024,0.603-0.034c0.201-0.009,0.395-0.013,0.582-0.013c0.491,0,0.958,0.049,1.399,0.147     s0.83,0.268,1.165,0.509c0.334,0.241,0.6,0.56,0.796,0.957c0.196,0.397,0.294,0.895,0.294,1.493c0,0.625-0.105,1.145-0.314,1.56     c-0.21,0.415-0.487,0.748-0.83,0.998c-0.344,0.25-0.734,0.426-1.171,0.529c-0.438,0.103-0.884,0.154-1.339,0.154     c-0.169,0-0.319-0.002-0.448-0.007s-0.27-0.016-0.422-0.034v3.481c-0.214,0.027-0.442,0.04-0.683,0.04     c-0.107,0-0.221-0.002-0.342-0.006c-0.12-0.005-0.234-0.016-0.341-0.034V33.624z M115.439,38.591     c0.143,0.018,0.268,0.031,0.375,0.04c0.107,0.009,0.263,0.014,0.469,0.014c0.276,0,0.551-0.029,0.823-0.087     c0.272-0.058,0.516-0.163,0.729-0.314c0.214-0.152,0.386-0.359,0.516-0.623s0.194-0.604,0.194-1.024     c0-0.366-0.056-0.674-0.167-0.924c-0.112-0.25-0.266-0.451-0.462-0.603c-0.196-0.151-0.433-0.259-0.709-0.321     c-0.277-0.063-0.576-0.094-0.897-0.094c-0.33,0-0.62,0.014-0.87,0.04V38.591z"/>
			<path fill="#4B4A4B" d="M123.312,34.829h-2.503c-0.018-0.089-0.032-0.188-0.041-0.295c-0.009-0.107-0.013-0.209-0.013-0.308     s0.004-0.199,0.013-0.301s0.022-0.199,0.041-0.288h6.373c0.018,0.089,0.031,0.183,0.04,0.281s0.014,0.196,0.014,0.294     c0,0.099-0.005,0.203-0.014,0.315c-0.009,0.111-0.022,0.212-0.04,0.301h-2.504v8.435c-0.205,0.027-0.428,0.04-0.669,0.04     c-0.25,0-0.482-0.013-0.696-0.04V34.829z"/>
			<path fill="#4B4A4B" d="M128.694,33.637c0.107-0.018,0.219-0.031,0.335-0.04c0.116-0.009,0.232-0.014,0.348-0.014     c0.116,0,0.232,0.005,0.348,0.014c0.116,0.009,0.228,0.022,0.334,0.04v9.627c-0.107,0.018-0.216,0.031-0.328,0.04     s-0.23,0.014-0.354,0.014c-0.116,0-0.234-0.005-0.355-0.014s-0.23-0.022-0.328-0.04V33.637z"/>
			<path fill="#4B4A4B" d="M136.125,43.425c-0.696,0-1.299-0.123-1.808-0.368s-0.931-0.589-1.265-1.031     c-0.335-0.442-0.585-0.966-0.75-1.573s-0.248-1.272-0.248-1.995s0.083-1.388,0.248-1.995s0.415-1.131,0.75-1.573     c0.334-0.442,0.756-0.788,1.265-1.038s1.111-0.375,1.808-0.375s1.299,0.125,1.808,0.375s0.93,0.596,1.265,1.038     c0.334,0.442,0.583,0.966,0.743,1.573s0.241,1.272,0.241,1.995s-0.08,1.388-0.241,1.995s-0.409,1.131-0.743,1.573     c-0.335,0.441-0.756,0.785-1.265,1.031S136.821,43.425,136.125,43.425z M136.125,42.247c0.446,0,0.832-0.087,1.158-0.261     c0.326-0.174,0.596-0.426,0.81-0.756c0.214-0.33,0.375-0.728,0.482-1.192c0.107-0.464,0.161-0.991,0.161-1.58     c0-0.58-0.054-1.105-0.161-1.573c-0.107-0.469-0.268-0.866-0.482-1.192c-0.214-0.326-0.484-0.576-0.81-0.75     c-0.326-0.174-0.712-0.261-1.158-0.261c-0.447,0-0.833,0.087-1.158,0.261c-0.326,0.174-0.596,0.424-0.81,0.75     c-0.214,0.326-0.375,0.723-0.482,1.192c-0.107,0.468-0.161,0.993-0.161,1.573c0,0.589,0.053,1.116,0.161,1.58     c0.107,0.464,0.268,0.862,0.482,1.192s0.484,0.583,0.81,0.756C135.292,42.16,135.678,42.247,136.125,42.247z"/>
			<path fill="#4B4A4B" d="M142.177,33.637c0.098-0.018,0.203-0.031,0.314-0.04c0.112-0.009,0.217-0.014,0.315-0.014     s0.203,0.005,0.314,0.014s0.216,0.022,0.315,0.04l4.191,7.23v-7.23c0.107-0.018,0.218-0.031,0.334-0.04     c0.116-0.009,0.232-0.014,0.348-0.014c0.098,0,0.201,0.005,0.308,0.014c0.107,0.009,0.209,0.022,0.308,0.04v9.627     c-0.098,0.018-0.203,0.031-0.314,0.04c-0.112,0.009-0.216,0.014-0.314,0.014c-0.099,0-0.203-0.005-0.315-0.014     s-0.216-0.022-0.314-0.04l-4.204-7.19v7.19c-0.099,0.018-0.204,0.031-0.315,0.04c-0.112,0.009-0.221,0.014-0.328,0.014     c-0.116,0-0.23-0.005-0.341-0.014c-0.112-0.009-0.212-0.022-0.301-0.04V33.637z"/>
		</g>
	</g>
</g>
</svg>