<?xml version="1.0" encoding="UTF-8"?>
<svg width="9px" height="13px" viewBox="0 0 9 13" version="1.1" xmlns="http://www.w3.org/2000/svg" xmlns:xlink="http://www.w3.org/1999/xlink">
    <!-- Generator: Sketch 51.2 (57519) - http://www.bohemiancoding.com/sketch -->
    <title>location-pin.1</title>
    <desc>Created with Sketch.</desc>
    <defs></defs>
    <g id="Shopper" stroke="none" stroke-width="1" fill="none" fill-rule="evenodd">
        <g id="13_detail-product" transform="translate(-848.000000, -868.000000)" fill="#D2A542" fill-rule="nonzero">
            <g id="Group-8" transform="translate(735.000000, 697.000000)">
                <g id="location-pin.1" transform="translate(113.000000, 171.000000)">
                    <path d="M4.5,0 C2.01471863,3.92558832e-16 4.70212105e-16,1.9789026 0,4.42000268 C0,7.00799224 2.63827059,11.1262387 3.87444706,12.6970557 C4.02399687,12.8879101 4.25523164,12.9998165 4.50042745,12.9999998 C4.74562327,13.000183 4.97703114,12.8886224 5.12687647,12.6979917 C6.36379412,11.1312827 9,7.02359225 9,4.42000268 C9,3.24774508 8.52589422,2.12350011 7.68198052,1.29458881 C6.83806681,0.465677516 5.6934742,-1.88513399e-16 4.5,0 Z M4.5,5.72000346 C3.47664885,5.72000346 2.64705882,4.90516121 2.64705882,3.90000236 C2.64705882,2.89484351 3.47664885,2.08000126 4.5,2.08000126 C5.52335115,2.08000126 6.35294118,2.89484351 6.35294118,3.90000236 C6.35294118,4.90516121 5.52335115,5.72000346 4.5,5.72000346 Z" id="Shape"></path>
                </g>
            </g>
        </g>
    </g>
</svg>