<?xml version="1.0" encoding="UTF-8"?>
<!-- Generator: Adobe Illustrator 16.0.0, SVG Export Plug-In . SVG Version: 6.00 Build 0)  -->
<!DOCTYPE svg PUBLIC "-//W3C//DTD SVG 1.1//EN" "http://www.w3.org/Graphics/SVG/1.1/DTD/svg11.dtd">
<svg version="1.1" id="Layer_1" xmlns:x="http://ns.adobe.com/Extensibility/1.0/" xmlns:i="http://ns.adobe.com/AdobeIllustrator/10.0/" xmlns:graph="http://ns.adobe.com/Graphs/1.0/" xmlns="http://www.w3.org/2000/svg" xmlns:xlink="http://www.w3.org/1999/xlink" x="0px" y="0px" width="145.379px" height="48.596px" viewBox="0 0 145.379 48.596" enable-background="new 0 0 145.379 48.596" xml:space="preserve">
<metadata>
	<sfw xmlns="http://ns.adobe.com/SaveForWeb/1.0/">
		<slices/>
		<sliceSourceBounds height="518.332" width="1450.856" y="-533.657" x="-871.156" bottomLeftOrigin="true"/>
	</sfw>
</metadata>
<g>
	<path fill="#4B4A4B" d="M32.332,18.676l0.057-6.97C29.314-1.083,17.264,0.024,17.264,0.024S4.796-1.083,1.722,11.706l0.057,6.97   L0,20.068V35.07c0,0,2.46,13.526,16.97,13.526h0.171c14.51,0,16.97-13.526,16.97-13.526V20.068L32.332,18.676z M7.255,12.075   c0,0,1.454-7.082,9.214-7.24l0.918-0.015c7.993,0,9.469,7.255,9.469,7.255v6.763H15.05H7.255V12.075z M28.121,28.839L15.549,40.875   c-0.193,0.185-0.442,0.278-0.691,0.278c-0.243,0-0.486-0.088-0.678-0.265l-8.177-7.535c-0.195-0.18-0.311-0.43-0.321-0.694   c-0.011-0.265,0.084-0.524,0.264-0.719l3.389-3.677c0.374-0.407,1.006-0.433,1.413-0.058l4.032,3.715l8.501-8.138   c0.398-0.382,1.032-0.369,1.414,0.031l3.458,3.611c0.184,0.191,0.283,0.448,0.278,0.713C28.423,28.404,28.313,28.656,28.121,28.839   z"/>
	<g>
		<g>
			<path fill="#4B4A4B" d="M51.667,19.069c-0.65-0.248-1.232-0.52-1.748-0.816c-0.516-0.296-0.955-0.649-1.318-1.06     c-0.363-0.411-0.645-0.902-0.845-1.476c-0.201-0.573-0.301-1.26-0.301-2.063c0-0.974,0.167-1.833,0.501-2.579     c0.334-0.745,0.807-1.37,1.418-1.876c0.611-0.506,1.346-0.888,2.206-1.146c0.859-0.258,1.824-0.387,2.894-0.387     c0.974,0,1.886,0.086,2.736,0.258c0.85,0.172,1.743,0.42,2.679,0.745c-0.114,1.108-0.42,2.197-0.917,3.266     c-0.287-0.114-0.578-0.229-0.874-0.344c-0.296-0.115-0.611-0.21-0.945-0.287c-0.334-0.076-0.712-0.138-1.132-0.186     c-0.42-0.047-0.898-0.072-1.433-0.072c-0.325,0-0.654,0.029-0.988,0.086c-0.334,0.058-0.635,0.163-0.902,0.315     c-0.268,0.153-0.487,0.377-0.659,0.673c-0.172,0.296-0.258,0.683-0.258,1.16c0,0.382,0.067,0.702,0.201,0.96     c0.133,0.258,0.315,0.478,0.544,0.659c0.229,0.182,0.487,0.334,0.773,0.458c0.287,0.125,0.573,0.244,0.859,0.358l1.719,0.659     c0.726,0.287,1.384,0.583,1.977,0.888c0.592,0.306,1.093,0.683,1.504,1.131c0.411,0.449,0.73,0.994,0.959,1.633     c0.229,0.64,0.344,1.428,0.344,2.364c0,0.974-0.177,1.862-0.53,2.664c-0.354,0.802-0.864,1.49-1.533,2.063     c-0.669,0.573-1.495,1.022-2.478,1.347c-0.984,0.324-2.116,0.487-3.395,0.487c-0.63,0-1.194-0.019-1.69-0.057     c-0.497-0.039-0.97-0.101-1.418-0.187s-0.893-0.195-1.332-0.329c-0.439-0.134-0.898-0.296-1.375-0.487     c0.057-0.554,0.162-1.132,0.315-1.733c0.153-0.602,0.334-1.208,0.544-1.819c0.802,0.325,1.557,0.569,2.263,0.731     s1.461,0.243,2.263,0.243c1.204,0,2.149-0.224,2.836-0.673s1.032-1.132,1.032-2.049c0-0.458-0.082-0.84-0.244-1.146     c-0.163-0.305-0.373-0.563-0.63-0.773c-0.258-0.21-0.549-0.387-0.874-0.53c-0.325-0.144-0.659-0.282-1.002-0.416L51.667,19.069z"/>
			<path fill="#4B4A4B" d="M63.671,8.011H75.36c0.114,0.573,0.172,1.156,0.172,1.748c0,0.63-0.058,1.232-0.172,1.805h-7.506v4.469     h5.959c0.115,0.611,0.172,1.203,0.172,1.776c0,0.611-0.057,1.213-0.172,1.805h-5.959v5.443h7.707     c0.115,0.573,0.172,1.156,0.172,1.748c0,0.63-0.057,1.232-0.172,1.805h-11.89V8.011z"/>
			<path fill="#4B4A4B" d="M92.493,24.713c0.248,0.535,0.453,1.084,0.616,1.647c0.162,0.563,0.282,1.132,0.358,1.705     c-0.994,0.363-1.887,0.602-2.679,0.716c-0.793,0.115-1.647,0.172-2.564,0.172c-1.624,0-3.046-0.263-4.269-0.788     c-1.223-0.525-2.249-1.261-3.08-2.206c-0.831-0.946-1.457-2.067-1.876-3.367c-0.42-1.298-0.63-2.712-0.63-4.24     c0-1.528,0.219-2.946,0.659-4.254c0.439-1.308,1.074-2.439,1.905-3.395c0.831-0.955,1.853-1.7,3.066-2.234     c1.212-0.535,2.593-0.802,4.14-0.802c0.917,0,1.762,0.057,2.536,0.172c0.773,0.114,1.609,0.354,2.507,0.716     c-0.039,0.573-0.153,1.131-0.344,1.676c-0.191,0.544-0.401,1.094-0.63,1.647c-0.669-0.229-1.261-0.391-1.776-0.487     c-0.516-0.095-1.127-0.143-1.833-0.143c-1.833,0-3.242,0.597-4.226,1.791c-0.984,1.194-1.475,2.965-1.475,5.314     c0,4.661,1.977,6.991,5.93,6.991c0.707,0,1.328-0.047,1.862-0.143S91.824,24.943,92.493,24.713z"/>
			<path fill="#4B4A4B" d="M96.475,8.011c0.362-0.058,0.716-0.095,1.06-0.115c0.344-0.019,0.697-0.029,1.06-0.029     c0.325,0,0.659,0.01,1.003,0.029c0.344,0.02,0.697,0.057,1.06,0.115v10.687c0,1.165,0.043,2.163,0.129,2.994     s0.258,1.519,0.516,2.063c0.258,0.544,0.621,0.945,1.089,1.203c0.468,0.258,1.074,0.387,1.819,0.387     c0.745,0,1.346-0.129,1.805-0.387s0.816-0.659,1.075-1.203c0.258-0.544,0.43-1.232,0.516-2.063s0.129-1.829,0.129-2.994V8.011     c0.382-0.058,0.745-0.095,1.088-0.115c0.344-0.019,0.678-0.029,1.003-0.029c0.344,0,0.692,0.01,1.046,0.029     c0.353,0.02,0.711,0.057,1.074,0.115v11.574c0,1.395-0.115,2.669-0.344,3.825c-0.229,1.156-0.64,2.144-1.232,2.965     c-0.592,0.822-1.385,1.457-2.378,1.905c-0.994,0.449-2.254,0.673-3.782,0.673c-1.528,0-2.789-0.225-3.782-0.673     c-0.994-0.448-1.786-1.083-2.378-1.905c-0.592-0.821-1.003-1.809-1.232-2.965c-0.229-1.156-0.344-2.431-0.344-3.825V8.011z"/>
			<path fill="#4B4A4B" d="M116.014,8.011c0.84-0.095,1.628-0.176,2.364-0.244c0.735-0.067,1.551-0.1,2.449-0.1     c1.05,0,2.086,0.096,3.109,0.286c1.021,0.191,1.943,0.53,2.765,1.017c0.821,0.487,1.485,1.146,1.991,1.977     c0.506,0.831,0.759,1.886,0.759,3.166c0,0.764-0.096,1.437-0.286,2.02c-0.191,0.583-0.435,1.094-0.731,1.533     c-0.296,0.44-0.616,0.816-0.959,1.132c-0.344,0.315-0.669,0.568-0.974,0.759l-0.487,0.315l5.014,8.709     c-0.382,0.038-0.784,0.076-1.204,0.115c-0.42,0.038-0.85,0.057-1.289,0.057c-0.726,0-1.442-0.057-2.149-0.172l-5.386-9.569     l0.688-0.344c0.267-0.133,0.592-0.305,0.974-0.516c0.382-0.21,0.749-0.473,1.103-0.788c0.354-0.315,0.654-0.697,0.903-1.146     c0.248-0.448,0.373-0.979,0.373-1.59c0-1.204-0.344-2.086-1.032-2.65c-0.688-0.563-1.576-0.845-2.665-0.845     c-0.42,0-0.802,0.029-1.146,0.086V28.61c-0.344,0.038-0.688,0.072-1.031,0.1c-0.344,0.029-0.678,0.043-1.002,0.043     c-0.325,0-0.669-0.01-1.032-0.028c-0.363-0.02-0.735-0.058-1.117-0.115V8.011z"/>
			<path fill="#4B4A4B" d="M133.318,8.011h11.689c0.114,0.573,0.172,1.156,0.172,1.748c0,0.63-0.058,1.232-0.172,1.805h-7.506v4.469     h5.959c0.115,0.611,0.172,1.203,0.172,1.776c0,0.611-0.057,1.213-0.172,1.805h-5.959v5.443h7.707     c0.115,0.573,0.172,1.156,0.172,1.748c0,0.63-0.057,1.232-0.172,1.805h-11.89V8.011z"/>
		</g>
	</g>
	<g>
		<g>
			<path fill="#4B4A4B" d="M46.912,34.639c0.125-0.017,0.273-0.033,0.443-0.05c0.171-0.017,0.35-0.031,0.538-0.044     c0.187-0.012,0.375-0.022,0.562-0.031s0.368-0.013,0.543-0.013c0.458,0,0.893,0.046,1.305,0.137     c0.412,0.092,0.774,0.25,1.087,0.475c0.312,0.225,0.56,0.523,0.743,0.894s0.275,0.835,0.275,1.393     c0,0.583-0.098,1.068-0.293,1.456c-0.196,0.387-0.454,0.697-0.775,0.93c-0.32,0.233-0.685,0.398-1.093,0.494     c-0.408,0.096-0.825,0.144-1.249,0.144c-0.159,0-0.298-0.002-0.418-0.006c-0.121-0.004-0.252-0.014-0.394-0.031v3.248     c-0.2,0.025-0.412,0.038-0.637,0.038c-0.1,0-0.206-0.002-0.318-0.006c-0.113-0.004-0.219-0.015-0.319-0.031V34.639z      M48.186,39.273c0.133,0.017,0.25,0.029,0.35,0.037c0.1,0.009,0.246,0.013,0.437,0.013c0.258,0,0.514-0.027,0.769-0.081     c0.254-0.054,0.481-0.152,0.681-0.294c0.2-0.141,0.36-0.335,0.481-0.581s0.181-0.564,0.181-0.956     c0-0.341-0.052-0.629-0.156-0.862c-0.104-0.233-0.248-0.421-0.431-0.563c-0.184-0.142-0.404-0.241-0.662-0.3     c-0.258-0.058-0.537-0.087-0.837-0.087c-0.309,0-0.579,0.013-0.812,0.038V39.273z"/>
			<path fill="#4B4A4B" d="M60.016,41.559h-3.41l-0.612,2.074c-0.108,0.017-0.217,0.029-0.325,0.038     c-0.108,0.008-0.217,0.012-0.325,0.012c-0.117,0-0.231-0.004-0.344-0.012s-0.214-0.021-0.306-0.038l2.923-8.981     c0.108-0.017,0.225-0.029,0.35-0.038s0.254-0.012,0.387-0.012c0.117,0,0.237,0.004,0.362,0.012s0.246,0.021,0.362,0.038     l2.911,8.981c-0.1,0.017-0.212,0.029-0.337,0.038s-0.246,0.012-0.362,0.012c-0.108,0-0.219-0.004-0.331-0.012     s-0.219-0.021-0.318-0.038L60.016,41.559z M56.942,40.447h2.736l-1.374-4.584L56.942,40.447z"/>
			<path fill="#4B4A4B" d="M66.773,40.348l-2.848-5.696c0.108-0.017,0.225-0.029,0.35-0.038s0.25-0.012,0.375-0.012     c0.108,0,0.227,0.004,0.356,0.012c0.129,0.008,0.244,0.021,0.344,0.038l2.099,4.459l2.074-4.459     c0.108-0.017,0.216-0.029,0.325-0.038c0.108-0.008,0.22-0.012,0.337-0.012c0.116,0,0.233,0.004,0.35,0.012     c0.116,0.008,0.229,0.021,0.337,0.038l-2.811,5.696v3.285c-0.108,0.017-0.216,0.029-0.325,0.038s-0.216,0.012-0.325,0.012     s-0.219-0.004-0.331-0.012s-0.214-0.021-0.306-0.038V40.348z"/>
			<path fill="#4B4A4B" d="M74.693,34.651c0.1-0.017,0.214-0.029,0.343-0.038c0.129-0.008,0.252-0.012,0.369-0.012     s0.244,0.004,0.381,0.012c0.138,0.008,0.252,0.021,0.344,0.038l2.323,5.621l2.336-5.621c0.083-0.017,0.188-0.029,0.313-0.038     s0.246-0.012,0.362-0.012c0.108,0,0.229,0.004,0.362,0.012c0.133,0.008,0.246,0.021,0.337,0.038l0.425,8.981     c-0.1,0.017-0.202,0.029-0.306,0.038c-0.104,0.008-0.21,0.012-0.319,0.012s-0.214-0.004-0.318-0.012     c-0.104-0.008-0.202-0.021-0.293-0.038l-0.288-6.983l-2.198,5.122c-0.167,0.025-0.337,0.038-0.512,0.038     c-0.158,0-0.317-0.013-0.475-0.038l-2.124-5.159l-0.287,7.021c-0.092,0.017-0.188,0.029-0.287,0.038     c-0.1,0.008-0.196,0.012-0.288,0.012c-0.108,0-0.212-0.004-0.312-0.012c-0.1-0.008-0.196-0.021-0.288-0.038L74.693,34.651z"/>
			<path fill="#4B4A4B" d="M86.885,34.651h4.935c0.025,0.167,0.037,0.35,0.037,0.55c0,0.091-0.002,0.187-0.006,0.287     c-0.004,0.1-0.015,0.192-0.031,0.275h-3.66v2.573h2.923c0.017,0.083,0.029,0.173,0.038,0.269s0.012,0.189,0.012,0.281     c0,0.091-0.004,0.187-0.012,0.287s-0.021,0.191-0.038,0.275h-2.923v3.073h3.76c0.025,0.167,0.038,0.35,0.038,0.55     c0,0.092-0.002,0.188-0.006,0.287c-0.004,0.1-0.015,0.192-0.031,0.275h-5.034V34.651z"/>
			<path fill="#4B4A4B" d="M95.829,34.651c0.092-0.017,0.189-0.029,0.293-0.038c0.104-0.008,0.202-0.012,0.294-0.012     c0.091,0,0.189,0.004,0.293,0.012c0.104,0.008,0.202,0.021,0.293,0.038l3.91,6.746v-6.746c0.1-0.017,0.204-0.029,0.312-0.038     s0.216-0.012,0.325-0.012c0.092,0,0.188,0.004,0.288,0.012c0.1,0.008,0.195,0.021,0.287,0.038v8.981     c-0.092,0.017-0.189,0.029-0.293,0.038c-0.104,0.008-0.202,0.012-0.293,0.012c-0.092,0-0.189-0.004-0.294-0.012     c-0.104-0.008-0.202-0.021-0.293-0.038l-3.922-6.708v6.708c-0.092,0.017-0.189,0.029-0.293,0.038s-0.206,0.012-0.306,0.012     c-0.108,0-0.214-0.004-0.318-0.012c-0.104-0.008-0.198-0.021-0.281-0.038V34.651z"/>
			<path fill="#4B4A4B" d="M108.121,35.763h-2.336c-0.017-0.083-0.029-0.175-0.038-0.275s-0.013-0.196-0.013-0.287     c0-0.092,0.004-0.186,0.013-0.281s0.021-0.185,0.038-0.269h5.946c0.017,0.083,0.029,0.171,0.038,0.262     c0.008,0.092,0.012,0.184,0.012,0.275c0,0.092-0.004,0.189-0.012,0.293c-0.008,0.104-0.021,0.198-0.038,0.281h-2.336v7.87     c-0.192,0.025-0.4,0.038-0.625,0.038c-0.233,0-0.45-0.013-0.649-0.038V35.763z"/>
		</g>
	</g>
</g>
</svg>