<?xml version="1.0" encoding="UTF-8"?>
<svg width="60px" height="60px" viewBox="0 0 60 60" version="1.1" xmlns="http://www.w3.org/2000/svg" xmlns:xlink="http://www.w3.org/1999/xlink">
    <!-- Generator: Sketch 51.2 (57519) - http://www.bohemiancoding.com/sketch -->
    <title>logogram</title>
    <desc>Created with Sketch.</desc>
    <defs></defs>
    <g id="Page-1" stroke="none" stroke-width="1" fill="none" fill-rule="evenodd">
        <g id="logogram">
            <rect id="Rectangle" fill="#EEEEEE" x="0" y="0" width="60" height="60"></rect>
            <path d="M22.525,13.999 C17.8621098,13.9739449 14.0538206,17.7183531 14,22.381 L14,37.667 C14.0538206,42.3296469 17.8621098,46.0740551 22.525,46.049 L38.071,46.049 C42.7356692,46.076812 46.546718,42.3314478 46.6,37.667 L46.6,22.381 C46.546718,17.7165522 42.7356692,13.971188 38.071,13.999 L22.525,13.999 Z" id="Fill_14" fill="#C7C7C7" fill-rule="nonzero" style="mix-blend-mode: luminosity;"></path>
            <path d="M35.343,25.064 L35.343,37.493 C35.3193754,39.6080052 33.5910951,41.3063412 31.476,41.293 L22.703,41.293 C21.6855155,41.3041932 20.7054854,40.9096112 19.9796196,40.1965062 C19.2537538,39.4834012 18.8418533,38.5105229 18.835,37.493 L18.835,25.064 L22.507,25.064 L22.507,37.493 C22.5057923,37.5457822 22.5267172,37.5966636 22.5647086,37.6333253 C22.6027,37.669987 22.6542942,37.6890866 22.707,37.686 L31.475,37.686 C31.5275462,37.6884823 31.5787898,37.6691828 31.6166436,37.632654 C31.6544973,37.5961251 31.6756094,37.5456012 31.675,37.493 L31.675,25.064 L35.343,25.064 Z" id="Fill_15" fill="#FFFFFF" fill-rule="nonzero" style="mix-blend-mode: luminosity;"></path>
            <path d="M25.254,34.985 L25.254,22.553 C25.2776246,20.4379947 27.0059049,18.7396588 29.121,18.753 L37.894,18.753 C38.9114845,18.7418068 39.8915146,19.1363888 40.6173804,19.8494938 C41.3432462,20.5625988 41.7551467,21.5354771 41.762,22.553 L41.762,34.985 L38.09,34.985 L38.09,22.553 C38.0912077,22.5002177 38.0702828,22.4493364 38.0322914,22.4126747 C37.9943,22.376013 37.9427058,22.3569134 37.89,22.36 L29.121,22.36 C29.0683743,22.3572186 29.0169573,22.3764192 28.9790356,22.4130136 C28.9411139,22.449608 28.9200945,22.5003086 28.921,22.553 L28.921,34.985 L25.254,34.985 Z" id="Fill_16" fill="#FFFFFF" fill-rule="nonzero" style="mix-blend-mode: luminosity;"></path>
        </g>
    </g>
</svg>