<?xml version="1.0" encoding="UTF-8"?>
<svg width="33px" height="33px" viewBox="0 0 33 33" version="1.1" xmlns="http://www.w3.org/2000/svg" xmlns:xlink="http://www.w3.org/1999/xlink">
    <!-- Generator: Sketch 51.2 (57519) - http://www.bohemiancoding.com/sketch -->
    <title>Group</title>
    <desc>Created with Sketch.</desc>
    <defs></defs>
    <g id="Page-1" stroke="none" stroke-width="1" fill="none" fill-rule="evenodd">
        <g id="logo-imensity" transform="translate(0.000000, -1.000000)" fill-rule="nonzero">
            <g id="Group_17" transform="translate(0.000000, 0.929000)">
                <g id="Group_17-2">
                    <g id="Group">
                        <path d="M24.071,0.07 L8.525,0.07 C3.86210975,0.044944918 0.0538206393,3.78935305 0,8.452 L0,23.738 C0.0538206393,28.4006469 3.86210975,32.1450551 8.525,32.12 L24.071,32.12 C28.7356692,32.147812 32.546718,28.4024478 32.6,23.738 L32.6,8.452 C32.546718,3.78755219 28.7356692,0.0421880114 24.071,0.07" id="Fill_14" fill="#404042"></path>
                        <path d="M21.343,11.135 L21.343,23.564 C21.3193754,25.6790052 19.5910951,27.3773412 17.476,27.364 L8.703,27.364 C7.68551554,27.3751932 6.70548539,26.9806112 5.97961957,26.2675062 C5.25375376,25.5544012 4.84185328,24.5815229 4.835,23.564 L4.835,11.135 L8.507,11.135 L8.507,23.564 C8.50579232,23.6167822 8.52671721,23.6676636 8.5647086,23.7043253 C8.60269998,23.740987 8.65429424,23.7600866 8.707,23.757 L17.475,23.757 C17.5275462,23.7594823 17.5787898,23.7401828 17.6166436,23.703654 C17.6544973,23.6671251 17.6756094,23.6166012 17.675,23.564 L17.675,11.135 L21.343,11.135 Z" id="Fill_15" fill="#D0A32C"></path>
                        <path d="M11.254,21.056 L11.254,8.624 C11.2776246,6.50899475 13.0059049,4.81065877 15.121,4.824 L23.894,4.824 C24.9114845,4.81280679 25.8915146,5.20738883 26.6173804,5.92049382 C27.3432462,6.63359881 27.7551467,7.60647706 27.762,8.624 L27.762,21.056 L24.09,21.056 L24.09,8.624 C24.0912077,8.57121775 24.0702828,8.52033639 24.0322914,8.48367471 C23.9943,8.44701303 23.9427058,8.4279134 23.89,8.431 L15.121,8.431 C15.0683743,8.42821858 15.0169573,8.44741916 14.9790356,8.48401357 C14.9411139,8.52060798 14.9200945,8.5713086 14.921,8.624 L14.921,21.056 L11.254,21.056 Z" id="Fill_16" fill="#D0A32C"></path>
                    </g>
                </g>
            </g>
        </g>
    </g>
</svg>