<svg xmlns="http://www.w3.org/2000/svg" width="269.684" height="89" viewBox="0 0 269.684 89">
  <g id="Group_16" data-name="Group 16" transform="translate(-148.555 -184.893)">
    <g id="Group_2" data-name="Group 2">
      <path id="Path_60" data-name="Path 60" d="M159.443,216.78a5.444,5.444,0,1,1-5.41-5.41A5.377,5.377,0,0,1,159.443,216.78Zm-.89,41.978h-9.519V227.189h9.519Z" fill="#313133"/>
      <path id="Path_61" data-name="Path 61" d="M177.317,231.229c4.178-3.767,8.013-4.657,11.094-4.657a12.662,12.662,0,0,1,8.424,2.876,11.036,11.036,0,0,1,2.876,3.836c1.78-2.124,5.821-6.712,12.463-6.712a11.894,11.894,0,0,1,9.794,4.452c2.328,3.081,2.6,5.615,2.6,8.7v19.037h-10V241.706c0-2.739,0-8.08-5.889-8.08-3.493,0-6.1,2.465-7.807,4.931v20.2h-9.93v-17.6a9.239,9.239,0,0,0-.821-4.725,6,6,0,0,0-5.2-2.877c-1.37,0-4.315.411-7.6,4.041v21.16h-9.861V227.189h9.861Z" fill="#313133"/>
      <path id="Path_62" data-name="Path 62" d="M263.742,255.2a24.615,24.615,0,0,1-14.381,4.177c-13.97,0-18.01-9.588-18.01-16.367,0-10.136,7.875-16.436,16.709-16.436,6.574,0,16.435,3.9,16.23,18.011H241.623c.411,5.752,4.314,8.628,10.477,8.628,5.684,0,8.56-2.122,11.642-4.382Zm-8.218-15.82c-.274-2.807-2.122-6.779-6.847-6.779-4.863,0-6.643,4.04-6.849,6.779Z" fill="#313133"/>
      <path id="Path_63" data-name="Path 63" d="M281.617,231.708c2.67-3.081,5.683-5.136,10.272-5.136a10.988,10.988,0,0,1,10.34,6.163c1.165,2.329,1.233,4.589,1.233,7.4v18.626h-10v-17.8a12.12,12.12,0,0,0-.48-4.52,4.532,4.532,0,0,0-4.451-2.945c-3.972,0-6.506,4.245-6.916,4.93v20.339h-9.93V227.189h9.93Z" fill="#313133"/>
      <path id="Path_64" data-name="Path 64" d="M333.527,235.954c-3.424-1.849-6.78-3.082-9.793-3.082-.891,0-4.383.137-4.383,2.192,0,1.233.685,1.712,3.9,3.082,6.231,2.465,11.847,4.793,11.847,11.162,0,6.437-4.794,10.067-12.874,10.067a27.784,27.784,0,0,1-11.3-2.329v-6.985c5,2.6,8.218,2.945,10.067,2.945,3.287,0,4.793-1.1,4.793-2.4,0-1.78-1.232-2.26-6.026-4.245a41.635,41.635,0,0,1-5.273-2.466,8.664,8.664,0,0,1-4.178-7.533c0-5.341,4.52-9.793,12.875-9.793a20.728,20.728,0,0,1,10.341,2.329Z" fill="#313133"/>
      <rect id="Rectangle_6" data-name="Rectangle 6" width="9.519" height="31.57" transform="translate(341.196 227.189)" fill="#313133"/>
      <path id="Path_65" data-name="Path 65" d="M381.327,234.037H369.959v6.917c0,4.93,0,6.025.274,7.67a4.172,4.172,0,0,0,4.451,3.423,14.15,14.15,0,0,0,6.643-1.848v7.19a23.563,23.563,0,0,1-9.246,1.986c-3.971,0-7.943-1.507-10.272-4.726-1.506-2.123-1.917-4.45-1.917-9.176V234.037h-4.52v-1.849l13.217-14.929h1.37v9.93h11.368Z" fill="#313133"/>
      <path id="Path_66" data-name="Path 66" d="M397.078,273.893H386.532l9.245-20.271-12.326-26.433h10.615l6.642,15.613,7.122-15.613h10.409Z" fill="#313133"/>
    </g>
    <g id="Group_3" data-name="Group 3">
      <path id="Path_67" data-name="Path 67" d="M351.605,216.78a5.444,5.444,0,1,1-5.41-5.41A5.377,5.377,0,0,1,351.605,216.78Z" fill="#313133"/>
      <path id="Path_68" data-name="Path 68" d="M339.4,207.4c-3.413-1.852-6.881-3.573-10.379-5.218-3.554-1.62-7.131-3.182-10.768-4.589a192.081,192.081,0,0,0-22.219-7.188,172.036,172.036,0,0,0-22.906-4.328,158.525,158.525,0,0,0-46.32,1.071,170.463,170.463,0,0,0-22.474,5.339,189.559,189.559,0,0,0-21.55,8.1c-3.507,1.549-6.945,3.245-10.351,4.993-3.385,1.79-6.73,3.649-10,5.63,3.36-1.825,6.785-3.522,10.239-5.145,3.475-1.581,6.973-3.106,10.53-4.48a187.841,187.841,0,0,1,21.719-7.014,167.668,167.668,0,0,1,22.349-4.21,154.278,154.278,0,0,1,45.087,1.071,166.151,166.151,0,0,1,21.917,5.221,185.161,185.161,0,0,1,21.051,7.924c3.427,1.515,6.786,3.176,10.112,4.884,3.14,1.663,6.239,3.393,9.27,5.217a11.584,11.584,0,0,1,3.246-6.011A13.139,13.139,0,0,1,339.4,207.4Z" fill="#cc911a"/>
    </g>
  </g>
</svg>
