<?xml version="1.0" encoding="UTF-8"?>
<svg width="15px" height="16px" viewBox="0 0 15 16" version="1.1" xmlns="http://www.w3.org/2000/svg" xmlns:xlink="http://www.w3.org/1999/xlink">
    <!-- Generator: Sketch 51.2 (57519) - http://www.bohemiancoding.com/sketch -->
    <title>reload-ui</title>
    <desc>Created with Sketch.</desc>
    <defs></defs>
    <g id="Page-1" stroke="none" stroke-width="1" fill="none" fill-rule="evenodd">
        <g id="my-purchases" transform="translate(-21.000000, -475.000000)" fill="#5C5C5C" fill-rule="nonzero">
            <g id="1" transform="translate(-10.000000, 112.000000)">
                <g id="reload-ui" transform="translate(31.000000, 363.000000)">
                    <path d="M14.8148148,8 C14.8159323,4.47858575 12.3370264,1.4434567 8.88633195,0.741269134 C5.43563751,0.0390815705 1.96773523,1.86408472 0.592592593,5.1058963 L0.592592593,1.48148148 C0.592592593,1.31784156 0.459936222,1.18518519 0.296296296,1.18518519 C0.13265637,1.18518519 -1.75631673e-15,1.31784156 -1.77635684e-15,1.48148148 L-1.77635684e-15,5.62962963 C-1.76673324e-15,5.70821229 0.0312168416,5.78357642 0.0867831759,5.83914275 C0.14234951,5.89470908 0.217713633,5.92592593 0.296296296,5.92592593 L4.44444444,5.92592593 C4.60808437,5.92592593 4.74074074,5.79326956 4.74074074,5.62962963 C4.74074074,5.4659897 4.60808437,5.33333333 4.44444444,5.33333333 L1.14281481,5.33333333 C2.4089002,2.35256476 5.59886693,0.67556079 8.77209669,1.32252787 C11.9453264,1.96949495 14.2241411,4.76148957 14.2222222,8 L14.2222222,8.59259259 C14.2222222,8.75623252 14.3548786,8.88888889 14.5185185,8.88888889 C14.6821584,8.88888889 14.8148148,8.75623252 14.8148148,8.59259259 L14.8148148,8.00088889 L14.8148148,8.0002963 L14.8148148,8 Z" id="Shape"></path>
                    <path d="M14.5185185,10.0740741 L10.3703704,10.0740741 C10.2067304,10.0740741 10.0740741,10.2067304 10.0740741,10.3703704 C10.0740741,10.5340103 10.2067304,10.6666667 10.3703704,10.6666667 L13.672,10.6666667 C12.4059146,13.6474352 9.21594788,15.3244392 6.04271813,14.6774721 C2.86948837,14.0305051 0.590673742,11.2385104 0.592592593,8 L0.592592593,7.40740741 C0.592592593,7.24376748 0.459936222,7.11111111 0.296296296,7.11111111 C0.13265637,7.11111111 1.62899418e-16,7.24376748 1.42859359e-16,7.40740741 L1.42859359e-16,7.99911111 L-3.83468597e-16,8 C-0.00111745974,11.5214142 2.47778842,14.5565433 5.92848286,15.2587309 C9.37917731,15.9609184 12.8470796,14.1359153 14.2222222,10.8941037 L14.2222222,14.5185185 C14.2222222,14.6821584 14.3548786,14.8148148 14.5185185,14.8148148 C14.6821584,14.8148148 14.8148148,14.6821584 14.8148148,14.5185185 L14.8148148,10.3703704 C14.8148148,10.2067304 14.6821584,10.0740741 14.5185185,10.0740741 Z" id="Shape"></path>
                </g>
            </g>
        </g>
    </g>
</svg>