<?xml version="1.0" encoding="UTF-8"?>
<svg width="17px" height="11px" viewBox="0 0 17 11" version="1.1" xmlns="http://www.w3.org/2000/svg" xmlns:xlink="http://www.w3.org/1999/xlink">
    <!-- Generator: Sketch 51.2 (57519) - http://www.bohemiancoding.com/sketch -->
    <title>view</title>
    <desc>Created with Sketch.</desc>
    <defs></defs>
    <g id="Page-1" stroke="none" stroke-width="1" fill="none" fill-rule="evenodd" opacity="0.600000024">
        <g id="customer-detail" transform="translate(-21.000000, -115.000000)" fill="#000000" fill-rule="nonzero">
            <g id="Group-2" transform="translate(1.000000, 80.000000)">
                <g id="view" transform="translate(20.000000, 35.000000)">
                    <path d="M16.8919733,5.16431577 C16.7401018,4.95340285 13.121515,0 8.49992529,0 C3.87833558,0 0.259582792,4.95340285 0.107877269,5.16411352 C-0.0359590897,5.36420606 -0.0359590897,5.63559169 0.107877269,5.83568423 C0.259582792,6.04659715 3.87833558,11 8.49992529,11 C13.121515,11 16.7401018,6.04656344 16.8919733,5.83585277 C17.0360089,5.63579394 17.0360089,5.36420606 16.8919733,5.16431577 Z M8.49992529,9.86207478 C5.09563212,9.86207478 2.14715277,6.57440191 1.27433967,5.49961235 C2.14602387,4.42387897 5.08832741,1.13792522 8.49992529,1.13792522 C11.9040525,1.13792522 14.8523326,4.42502505 15.7255109,5.50038765 C14.8538267,6.57608732 11.9115232,9.86207478 8.49992529,9.86207478 Z" id="Shape"></path>
                    <path d="M8.5,2 C6.57013577,2 5,3.57013577 5,5.5 C5,7.42986423 6.57013577,9 8.5,9 C10.4298642,9 12,7.42986423 12,5.5 C12,3.57013577 10.4298642,2 8.5,2 Z M8.5,7.83331029 C7.21335473,7.83331029 6.16668971,6.78661071 6.16668971,5.5 C6.16668971,4.21338929 7.21338929,3.16668971 8.5,3.16668971 C9.78661071,3.16668971 10.8333103,4.21338929 10.8333103,5.5 C10.8333103,6.78661071 9.78664527,7.83331029 8.5,7.83331029 Z" id="Shape"></path>
                </g>
            </g>
        </g>
    </g>
</svg>